<svg xmlns="http://www.w3.org/2000/svg" xmlns:xlink="http://www.w3.org/1999/xlink" width="400" height="400" viewBox="0 0 400 400">
<rect data-name="background" width="100%" height="100%" fill="#000000"/><g data-name="icon" fill="#FFFFFF" data="id:7304026" transform="translate(-5.82421892171579, 144.89003647414006) scale(1.1022103601466575)">
  
 <path d="m63.906 88.449c-0.51172-0.15234-0.86328-0.61719-0.86328-1.1523v-9.5469c0-0.5625 0.39453-1.0508 0.94531-1.168 0.29688-0.17578 0.54688-0.41406 0.73828-0.69922 0.37891-0.58203 0.46484-1.3086 0.22656-1.9609s-0.76953-1.1562-1.4375-1.3555c-0.66406-0.19922-1.3867-0.070312-1.9414 0.34375-0.55859 0.41406-0.88672 1.0664-0.88672 1.7617v15.727c0 0.79687 0.42969 1.5273 1.1211 1.9141 0.69141 0.39062 1.5391 0.375 2.2188-0.035156 0.67969-0.41406 1.082-1.1602 1.0586-1.9531-0.027344-0.79297-0.47656-1.5117-1.1797-1.8789zm7.6992-54.664c0.1875 0.57812 0.57031 1.3516 0.81641 1.9297 0.89844 2.1484-0.62109 3.6992 1.0508 4.2109v-0.003906c0.57812 0.24609 1.2305 0.25 1.8125 0.015625v-3.375c0.003906-0.73828-0.28906-1.4492-0.8125-1.9688-0.52344-0.52344-1.2344-0.81641-1.9727-0.81641zm3.6797 8.6484v-0.003906c-0.83984 0.13281-1.6992 0.058593-2.5039-0.21094-4.0312-1.2227-1.9336-4.0781-2.5703-5.5859-0.45313-0.91406-0.81641-1.8672-1.082-2.8477h-10.547c1.0781 0.69531 1.8984 1.7266 2.332 2.9375 0.125 0.53906 0.027344 1.1094-0.26562 1.5781-0.29688 0.46875-0.76563 0.80078-1.3047 0.92188-1.457 0.51172-2.9883 0.76172-4.5312 0.74609-0.30078 0.13672 0.56641 0.19922 1.1641 1.543 0.050782 0.10547 1.3516 0.023437 2.9453 0.17188 2.0703 0.19531 4.3984 0.40625 5.8086 1.1289 2.9219 1.5 3.375 4.4648 2.8242 7.332-0.19141 0.88281-0.44922 1.75-0.77344 2.5938-0.4375 1.2383-0.84375 2.3984-0.65625 2.5859 0.80078 0.8125 2.6016 2.4648 3.7773 2.8008 0.42578 0.11719 2.4102-0.92578 5.3789-0.67578zm-7.1602 21.891c0.33594 0.035156 0.66797-0.070313 0.91797-0.29688 0.25-0.22266 0.39844-0.53906 0.40234-0.875 0.007813-0.33594-0.12891-0.66016-0.37109-0.89062-0.24609-0.23047-0.57422-0.35156-0.91016-0.32812l-2.3906-0.042969c-0.66406-0.011719-1.2109 0.51562-1.2227 1.1758-0.015625 0.66406 0.51172 1.2109 1.1758 1.2266 0.80078 0.015625 1.6016 0.03125 2.3984 0.039062zm-11.141-7.1133c0.054687-0.027344 0.10547-0.058594 0.16016-0.082032 0.55469-0.32422 0.75391-1.0273 0.45703-1.5938-0.30078-0.57031-0.99609-0.80078-1.5742-0.52344-0.71875 0.37891-1.4766 0.65625-2.1641 1.0195v-0.003906c-0.30859 0.13281-0.54688 0.38672-0.66016 0.70312-0.11328 0.31641-0.089844 0.66406 0.066406 0.96094s0.42578 0.51562 0.75 0.60156c0.32422 0.085937 0.67188 0.035156 0.95312-0.14453 0.625-0.32422 1.3438-0.60156 2.0117-0.9375zm4.7539-7.3438v0.003906c-0.21094-0.79297-0.60547-1.5273-1.1484-2.1406-0.29297-0.32031-0.73047-0.45703-1.1523-0.36328-0.42188 0.097656-0.76172 0.41016-0.88672 0.82422-0.27734 0.98047 0.78906 1.4297 0.9375 2.6367 0.12109 0.62109 0.69922 1.043 1.3281 0.96484s1.0859-0.63281 1.0469-1.2617c-0.023437-0.22656-0.066406-0.44922-0.125-0.66406zm-3.3008 14.062v0.003906c0.32812 0.054687 0.66016-0.027344 0.92578-0.22266 0.26172-0.19922 0.43359-0.5 0.47266-0.82813 0.035156-0.32812-0.066407-0.65625-0.28125-0.91016-0.21094-0.25-0.51953-0.40234-0.85156-0.42188-0.71875-0.066406-1.4297-0.19922-2.125-0.39844-0.30859-0.12109-0.65234-0.10938-0.95312 0.035156-0.30078 0.14062-0.52734 0.40234-0.62891 0.72266-0.097656 0.31641-0.0625 0.66016 0.10156 0.94922 0.16406 0.28906 0.44141 0.5 0.76562 0.57812 0.83984 0.24219 1.7031 0.41016 2.5742 0.49219zm-3.8047-12.645c0.49609-0.39844 0.59375-1.1172 0.22266-1.6328-0.37109-0.51953-1.0859-0.65625-1.6211-0.3125-0.52344 0.35547-1.1133 0.60156-1.7383 0.72266-0.61328 0.16406-0.99609 0.78125-0.86719 1.4062s0.72266 1.0391 1.3555 0.94141c0.94922-0.19141 1.8516-0.57422 2.6523-1.125zm-6.8516-5.2344v0.003907c0.007812 0.66016 0.55078 1.1914 1.2109 1.1875 0.66406-0.007813 1.1953-0.55078 1.1875-1.2148-0.003907-0.80078-0.011719-1.5898-0.011719-2.3828l0.003906 0.003907c0.03125-0.33594-0.082031-0.66797-0.30859-0.91797-0.22656-0.25-0.55078-0.39062-0.88672-0.39062-0.33594 0-0.66016 0.14062-0.88672 0.39062-0.22656 0.25-0.33984 0.58203-0.30859 0.91797v2.3984zm-4.1562-9.0898c-0.46875-0.46875-0.46875-1.2305 0-1.6992 0.46875-0.47266 1.2305-0.47266 1.6992 0l1.3984 1.4062 1.3984-1.4062h0.003906c0.47266-0.44141 1.2109-0.42578 1.668 0.03125 0.45312 0.45703 0.46484 1.1953 0.023437 1.668l-1.3984 1.3984 1.3984 1.3984v0.003907c0.41016 0.47266 0.38672 1.1875-0.058594 1.6328-0.44531 0.44141-1.1562 0.46875-1.6328 0.058594l-1.3984-1.3984-1.3984 1.3984h-0.003906c-0.46875 0.44922-1.2148 0.44141-1.6758-0.019531-0.46094-0.45703-0.47266-1.1992-0.023438-1.6719l1.4062-1.3984zm6.875 29.445c-0.66406-1.1406-2.293-3.4258-3.5117-3.7695-1.5938-0.44531-4.8164 0.85938-6.5859 0.078125-0.98438-0.42969-2.2695-3.2734-1.75-4.457 0.77734-1.7539 4.1055-3.8789 4.4531-5.5078 0.44922-2.1133 1.0703-4.7539-0.51562-6.3555-1.1211-1.1289-1.7305-3.3789-2.9375-3.8633-1.207-0.48438-3.918 0.60156-5.5234-0.15234-2.5273-1.1875-2.1133-2.1016-1.1641-4.1953 0.68359-1.3828 1.1211-2.8711 1.3008-4.4023h-2.7656v27.043c-0.003906 0.48438-0.29297 0.91797-0.73828 1.1016-0.44531 0.1875-0.96094 0.085938-1.3047-0.25-0.65625-0.65625-1.5938-0.94141-2.5039-0.76172-0.91016 0.17969-1.668 0.80469-2.0234 1.6602-0.35156 0.85938-0.25391 1.8359 0.26172 2.6055 0.51562 0.76953 1.3828 1.2344 2.3086 1.2305zm-13.844-32.621c-0.17578 1.8711-0.6875 3.6914-1.5117 5.3828-0.27734 0.60156-0.39453 0.86719 0 1.0469 0.64453 0.30469 3.5312-0.65234 5.3984 0.10156 2.2148 0.89453 2.875 3.5195 3.7383 4.3984 2.3672 2.3906 1.7852 5.6016 1.1641 8.5352-0.53906 2.5352-4.0898 4.8281-4.6016 5.9648l0.32031 0.65625c0.16016 0.38672 0.14453 0.64062 0.19922 0.66406 0.82031 0.34375 4.1641-0.78125 6.2617-0.1875 2.3008 0.64844 4.6602 4.1016 5.5547 6.0664l19.32-0.003906c0.98438 0 1.9531 0.28125 2.7852 0.80859v-7.375c-3.1562-0.31641-4.3906 1.0312-6.0234 0.57422-1.6719-0.47266-3.6992-2.2617-4.8398-3.418-1.7422-1.7734 0.33984-4.9844 0.78516-7.3008 0.35547-1.8281 0.28516-3.8125-1.5625-4.7617-1.5938-0.53125-3.2578-0.82812-4.9375-0.87891-2.3359-0.21484-4.3906-0.40625-4.9062-1.5703-1.3594-3.0391-1.3242-4.0898 0.039063-4.6953 1.0586-0.47266 2.5 0.058593 4.6289-0.78906 0.039062-0.015625 0.14062 0.35938 0.10938 0.19922-0.10938-0.53906-1.6133-1.6562-2.3984-2.25-0.47656-0.36328-0.98047-0.74609-1.4922-1.1641zm34.242 35.016v5.0352c0.72266 0.51562 1.6484 0.65625 2.4922 0.375s1.5-0.94922 1.7695-1.793c0.26953-0.84766 0.11719-1.7695-0.41016-2.4883-0.52344-0.71484-1.3633-1.1328-2.25-1.1289zm-2.3984 5.582v-5.582h-41c-1.3711 0.003907-2.6875-0.53906-3.6562-1.5039-0.97266-0.96875-1.5195-2.2812-1.5195-3.6523v-31.926c0.003906-2.0859 1.2578-3.9648 3.1836-4.7656 1.9219-0.80469 4.1406-0.37109 5.625 1.0938 0.23047 0.22656 0.36328 0.53516 0.36328 0.85938v2.4844h41v-0.003906c1.3711-0.003907 2.6914 0.53906 3.6641 1.5117 0.96875 0.96875 1.5156 2.2852 1.5117 3.6602v35.027c-0.007813 2.0859-1.2656 3.9609-3.1914 4.7617-1.9219 0.79688-4.1406 0.36328-5.6211-1.1016-0.23438-0.22656-0.36328-0.53516-0.36328-0.86328zm-43.781-15.109c1.3047-0.83203 2.9102-1.0352 4.3828-0.55469v-29.262c-0.84766-0.59766-1.9609-0.67969-2.8828-0.20312-0.92188 0.47656-1.5039 1.4258-1.5078 2.4648zm22.09-43h12.945c0.66406 0 1.1992 0.53516 1.1992 1.1992 0 0.66406-0.53516 1.1992-1.1992 1.1992h-12.914l-2.9336 2.1992 29.559 1.1914 5.2617-4.3242-5.2656-4.3633-29.234 1.1797zm-5.1016 3.2695 2.6836-2.0117-2.6836-1.7891zm-2.3867-5.9883v-3.9531h-0.003906c0-0.69531-0.32422-1.3516-0.88281-1.7695-0.55469-0.41797-1.2773-0.54688-1.9453-0.34766-0.66406 0.19922-1.1992 0.69922-1.4375 1.3516-0.23828 0.65625-0.15625 1.3828 0.22656 1.9648 0.1875 0.28906 0.4375 0.52734 0.73828 0.69922 0.55078 0.12109 0.94531 0.60938 0.94531 1.1758v9.5508-0.003906c-0.003907 0.53125-0.35547 1-0.86328 1.1484-0.70703 0.36719-1.1562 1.0898-1.1797 1.8828-0.027344 0.79297 0.37891 1.5391 1.0586 1.9492 0.67969 0.41016 1.5273 0.42578 2.2188 0.035156 0.69141-0.39062 1.1211-1.125 1.1211-1.918h0.003906v-3.3398m2.3867-9.7148 32.117-1.2969v0.003906c0.29688-0.015625 0.58203 0.082032 0.8125 0.26953l6.7305 5.5781c0.28516 0.23828 0.44531 0.59375 0.42969 0.96875-0.015625 0.37109-0.19922 0.71484-0.50391 0.92969l-6.6641 5.4805c-0.22656 0.1875-0.51172 0.28516-0.80469 0.27344l-32.121-1.293v2.1484h0.003906l0.003907-0.003906c0 1.6172-0.84375 3.1094-2.2266 3.9414-1.3867 0.83203-3.1016 0.875-4.5273 0.11719-1.4219-0.76172-2.3438-2.2109-2.4258-3.8242-0.082031-1.6094 0.69141-3.1445 2.0312-4.043v-0.41406h-8.875c-0.82031 0.63281-1.8242 0.98047-2.8633 0.98828-1.3828 0-2.6914-0.62109-3.5703-1.6914-0.87891-1.0664-1.2305-2.4727-0.96484-3.832 0.26953-1.3555 1.1328-2.5195 2.3516-3.1758 1.2188-0.65234 2.6641-0.72656 3.9453-0.20312 0.39453 0.16406 0.76562 0.38281 1.1016 0.64844h8.875v-0.41797c-1.3438-0.89844-2.1133-2.4336-2.0352-4.0469 0.082031-1.6133 1-3.0625 2.4258-3.8242 1.4219-0.76172 3.1406-0.71875 4.5273 0.11328 1.3828 0.82812 2.2305 2.3242 2.2305 3.9414h-0.003907zm-10.328 3.9648v2.4688h3.1836v-2.4688zm-2.3906 2.4688v-2.4688h-2.5508v2.4688zm-4.9453 0.63672v-3.7461c-0.6875-0.44531-1.5625-0.47656-2.2773-0.085938-0.71875 0.39062-1.168 1.1406-1.168 1.9609 0 0.81641 0.44922 1.5664 1.168 1.957 0.71484 0.39062 1.5898 0.35938 2.2773-0.085937zm15.277 2.5508v-8.3281m13.84 70.191-12.914-0.003906c-0.66406 0-1.1992-0.53516-1.1992-1.1992 0-0.66016 0.53516-1.1992 1.1992-1.1992h12.953l2.5742-1.7266-29.227-1.1719-5.2656 4.3633 5.2578 4.3242 29.555-1.1875zm5.1328-2.9297-2.6758 1.7891 2.6758 2.0078zm0 7.4297-32.113 1.3008h-0.003907c-0.28906 0.007813-0.57422-0.089843-0.79688-0.27344-0.74219-0.60938-6.7188-5.4805-6.8906-5.6914h-0.003906c-0.20312-0.24609-0.30078-0.55859-0.26953-0.875 0.027344-0.31641 0.18359-0.60938 0.42578-0.80859l6.7305-5.582v0.003907c0.22266-0.1875 0.50781-0.28516 0.80078-0.27734l32.113 1.3008v-2.6758c0-1.6133 0.84766-3.1094 2.2305-3.9375 1.3828-0.83203 3.1016-0.87109 4.5234-0.11328 1.4258 0.76172 2.3438 2.2109 2.4258 3.8203 0.078125 1.6133-0.69141 3.1484-2.0312 4.0469v0.42188h8.8711c0.81641-0.64453 1.8242-0.99609 2.8633-1 1.5-0.007812 2.9102 0.71484 3.7852 1.9336 0.87109 1.2227 1.0977 2.7891 0.60938 4.207-0.49219 1.418-1.6367 2.5117-3.0781 2.9297-1.4414 0.42188-2.9961 0.11719-4.1719-0.8125h-8.8789v0.41797c1.3398 0.89453 2.1133 2.4297 2.0352 4.043-0.078125 1.6094-1 3.0625-2.4219 3.8242-1.4258 0.76172-3.1445 0.71875-4.5273-0.11328-1.3828-0.82812-2.2305-2.3242-2.2305-3.9414zm12.723-6.9492v2.4766h2.5469v-2.4766zm-2.3945 2.4727v-2.4727h-3.1836v2.4766zm7.3359-3.1133v3.7539c0.6875 0.44141 1.5625 0.47266 2.2773 0.082032 0.71875-0.39062 1.1641-1.1445 1.1641-1.9609s-0.44531-1.5703-1.1641-1.9609c-0.71484-0.39062-1.5898-0.35938-2.2773 0.085937z"/>

  </g><g data-name="business_name" fill="#FFFFFF" data="id:20" transform="translate(107.33226600502142, 173.05721255135197) scale(0.7235618764074374)"><path d="M2.79296875,18.359375l12.32421875,0q1.97265625,0,3.642578125,0.517578125t2.890625,1.5234375t1.904296875,2.509765625t0.68359375,3.45703125q0,1.11328125-0.400390625,2.197265625t-1.11328125,2.01171875t-1.689453125,1.650390625t-2.12890625,1.11328125q0.48828125,0.21484375,0.986328125,0.615234375t0.9375,0.9765625t0.80078125,1.30859375t0.576171875,1.572265625l1.640625,6.4453125l2.55859375,0l0.0390625,3.7109375l-5.76171875,0l-2.20703125-9.00390625q-0.60546875-2.421875-1.845703125-3.564453125t-3.388671875-1.142578125l-3.80859375,0l0,10.3515625l2.96875,0l0,3.359375l-9.609375,0l0-3.359375l2.8125,0l0-22.87109375l-2.8125,0l0-3.37890625z M9.43359375,21.73828125l0,9.31640625l5.68359375,0q1.11328125,0,2.041015625-0.29296875t1.6015625-0.87890625t1.0546875-1.455078125t0.380859375-2.021484375q0-2.20703125-1.328125-3.4375t-4.21875-1.23046875l-5.21484375,0z M42.32421875,46.09375q-1.15234375,1.07421875-2.548828125,1.7578125t-3.173828125,0.68359375q-1.484375,0-2.724609375-0.46875t-2.138671875-1.279296875t-1.396484375-1.884765625t-0.498046875-2.28515625q0-1.2890625,0.380859375-2.28515625t1.015625-1.728515625t1.484375-1.23046875t1.77734375-0.80078125t1.89453125-0.4296875t1.845703125-0.126953125q1.40625,0,2.36328125,0.087890625t1.73828125,0.244140625l0.01953125-1.66015625q0-1.07421875-0.3125-1.865234375t-0.87890625-1.30859375t-1.357421875-0.771484375t-1.767578125-0.25390625q-0.91796875,0-1.7578125,0.126953125t-1.572265625,0.33203125t-1.34765625,0.46875t-1.044921875,0.556640625l-1.19140625-2.51953125q0.72265625-0.46875,1.58203125-0.869140625t1.806640625-0.68359375t1.93359375-0.44921875t1.943359375-0.166015625q1.7578125,0,3.1640625,0.419921875t2.3828125,1.298828125t1.50390625,2.236328125t0.52734375,3.251953125l-0.01953125,10.1171875l2.24609375,0l0,3.359375l-5.87890625,0l0-1.875z M37.40234375,45.48828125q0.72265625,0,1.4453125-0.17578125t1.3671875-0.478515625t1.19140625-0.703125t0.91796875-0.830078125l0.01953125-4.5703125l-4.21875,0q-1.0546875,0-1.923828125,0.234375t-1.50390625,0.68359375t-0.986328125,1.11328125t-0.3515625,1.5234375q0,0.80078125,0.29296875,1.396484375t0.830078125,0.99609375t1.279296875,0.60546875t1.640625,0.205078125z M65.625,44.609375l2.8515625,0l0-9.23828125q0-2.32421875-1.181640625-3.525390625t-3.388671875-1.201171875q-1.26953125,0-2.55859375,0.60546875t-2.44140625,1.50390625l0,11.85546875l2.8515625,0l0,3.359375l-9.453125,0l0-3.359375l2.8125,0l0-13.515625l-2.8125,0l0-3.359375l6.4453125,0l0,2.3828125l0.0390625,0q0.64453125-0.56640625,1.376953125-1.07421875t1.533203125-0.87890625t1.669921875-0.5859375t1.826171875-0.21484375q1.62109375,0,2.9296875,0.44921875t2.2265625,1.3671875t1.416015625,2.353515625t0.498046875,3.388671875l0,9.6875l2.8125,0l0,3.359375l-9.453125,0l0-3.359375z M78.828125,17.578125l7.12890625,0l0,3.359375l-0.0390625,0l0,15.1171875l3.515625,0l4.8046875-4.9609375l-1.2109375,0l0-3.359375l7.67578125,0l0,3.359375l-2.55859375,0l-6.15234375,6.34765625l6.71875,7.16796875l2.44140625,0l0,3.359375l-4.27734375,0l-8.28125-9.04296875l-2.67578125,0l0,5.68359375l1.6796875,0l0,3.359375l-8.65234375,0l0-3.359375l3.3203125,0l0-23.671875l-3.4375,0l0-3.359375z M103.9453125,27.734375l6.6015625,0l0,16.875l3.046875,0l0,3.359375l-9.609375,0l0-3.359375l2.890625,0l0-13.515625l-2.9296875,0l0-3.359375z M106.19140625,20.56640625q0-0.5078125,0.205078125-0.966796875t0.546875-0.80078125t0.810546875-0.546875t0.99609375-0.205078125q0.5078125,0,0.966796875,0.205078125t0.80078125,0.546875t0.546875,0.80078125t0.205078125,0.966796875q0,0.52734375-0.205078125,0.99609375t-0.546875,0.830078125t-0.80078125,0.56640625t-0.966796875,0.205078125q-0.52734375,0-0.99609375-0.205078125t-0.810546875-0.56640625t-0.546875-0.830078125t-0.205078125-0.99609375z M130.25390625,44.609375l2.8515625,0l0-9.23828125q0-2.32421875-1.181640625-3.525390625t-3.388671875-1.201171875q-1.26953125,0-2.55859375,0.60546875t-2.44140625,1.50390625l0,11.85546875l2.8515625,0l0,3.359375l-9.453125,0l0-3.359375l2.8125,0l0-13.515625l-2.8125,0l0-3.359375l6.4453125,0l0,2.3828125l0.0390625,0q0.64453125-0.56640625,1.376953125-1.07421875t1.533203125-0.87890625t1.669921875-0.5859375t1.826171875-0.21484375q1.62109375,0,2.9296875,0.44921875t2.2265625,1.3671875t1.416015625,2.353515625t0.498046875,3.388671875l0,9.6875l2.8125,0l0,3.359375l-9.453125,0l0-3.359375z M158.41796875,46.19140625q-0.99609375,1.0546875-2.314453125,1.640625t-2.998046875,0.5859375q-2.05078125,0-3.818359375-0.712890625t-3.06640625-2.08984375t-2.03125-3.37890625t-0.732421875-4.580078125q0-2.34375,0.703125-4.267578125t1.9921875-3.28125t3.10546875-2.109375t4.04296875-0.751953125q1.5234375,0,2.744140625,0.341796875t2.373046875,1.181640625l0-1.03515625l3.6328125,0l0,19.43359375q0,4.8046875-2.275390625,7.265625t-7.080078125,2.4609375q-1.0546875,0-2.20703125-0.15625t-2.275390625-0.498046875t-2.1875-0.869140625t-1.962890625-1.2890625l1.953125-2.94921875q0.5859375,0.5078125,1.337890625,0.9375t1.611328125,0.732421875t1.77734375,0.478515625t1.8359375,0.17578125q1.50390625,0,2.607421875-0.3125t1.81640625-1.103515625t1.064453125-2.138671875t0.3515625-3.41796875l0-0.29296875z M153.57421875,45.25390625q0.8984375,0,1.640625-0.17578125t1.34765625-0.458984375t1.064453125-0.654296875t0.791015625-0.78125l0-11.07421875q-0.99609375-0.87890625-2.294921875-1.26953125t-2.666015625-0.390625q-1.2890625,0-2.421875,0.478515625t-1.982421875,1.396484375t-1.337890625,2.24609375t-0.48828125,3.046875q0,1.875,0.46875,3.30078125t1.30859375,2.392578125t2.01171875,1.455078125t2.55859375,0.48828125z M165.09765625,47.96875z M175.52734375,37.8515625q0.01953125-2.40234375,0.771484375-4.375t2.099609375-3.388671875t3.203125-2.177734375t4.08203125-0.76171875q2.24609375,0,4.111328125,0.76171875t3.193359375,2.158203125t2.0703125,3.369140625t0.7421875,4.375q0,2.36328125-0.7421875,4.345703125t-2.0703125,3.408203125t-3.193359375,2.216796875t-4.111328125,0.791015625q-2.28515625,0-4.140625-0.78125t-3.18359375-2.197265625t-2.0703125-3.388671875t-0.76171875-4.35546875z M179.375,37.8515625q0,1.73828125,0.498046875,3.14453125t1.3671875,2.392578125t2.01171875,1.5234375t2.431640625,0.537109375q1.34765625,0,2.509765625-0.52734375t2.021484375-1.513671875t1.34765625-2.392578125t0.48828125-3.1640625q0-1.8359375-0.48828125-3.26171875t-1.337890625-2.3828125t-2.021484375-1.4453125t-2.51953125-0.48828125q-1.2890625,0-2.431640625,0.48828125t-2.01171875,1.4453125t-1.3671875,2.3828125t-0.498046875,3.26171875z M206.40625,27.734375l4.6875,0l0,2.94921875l-4.6875,0l0,13.92578125l3.1640625,0l0,3.359375l-9.84375,0l0-3.359375l3.046875,0l0-13.92578125l-3.33984375,0l0-2.94921875l3.33984375,0l0-3.1640625q0.0390625-1.7578125,0.5078125-3.06640625t1.328125-2.1875t2.0703125-1.30859375t2.6953125-0.4296875q1.03515625,0,1.85546875,0.09765625t1.46484375,0.263671875t1.142578125,0.361328125t0.888671875,0.390625l-1.11328125,2.59765625q-0.625-0.33203125-1.630859375-0.56640625t-2.099609375-0.234375q-1.62109375,0-2.548828125,1.005859375t-0.927734375,2.958984375l0,3.28125z M212.32421875,47.96875z M223.8671875,18.359375l9.609375,0l0,3.37890625l-2.96875,0l0,22.87109375l10.21484375,0q0.3125,0,0.625-0.146484375t0.56640625-0.380859375t0.41015625-0.537109375t0.15625-0.615234375l0-3.73046875l3.7109375,0l0,8.76953125l-22.32421875,0l0-3.359375l2.8125,0l0-22.87109375l-2.8125,0l0-3.37890625z M251.77734375,38.3203125q0,0.859375,0.126953125,1.572265625t0.361328125,1.357421875q0.72265625,1.953125,2.314453125,2.939453125t3.603515625,0.986328125q1.58203125,0,3.076171875-0.439453125t3.134765625-1.376953125l1.46484375,2.48046875q-1.9921875,1.3671875-4.00390625,2.03125t-4.1796875,0.6640625q-2.05078125,0-3.798828125-0.68359375t-3.0078125-2.03125t-1.97265625-3.359375t-0.712890625-4.6875q0-2.16796875,0.60546875-4.091796875t1.806640625-3.359375t2.978515625-2.275390625t4.140625-0.83984375q2.28515625,0,3.818359375,0.693359375t2.5,1.8359375t1.46484375,2.607421875t0.693359375,2.98828125q0.09765625,0.7421875,0.126953125,1.50390625t0.029296875,1.484375l-14.5703125,0z M257.4609375,30.25390625q-1.26953125,0-2.216796875,0.361328125t-1.611328125,1.03515625t-1.064453125,1.650390625t-0.595703125,2.1875l10.48828125,0q-0.078125-1.1328125-0.361328125-2.08984375t-0.869140625-1.66015625t-1.50390625-1.09375t-2.265625-0.390625z M286.09375,46.19140625q-0.99609375,1.0546875-2.314453125,1.640625t-2.998046875,0.5859375q-2.05078125,0-3.818359375-0.712890625t-3.06640625-2.08984375t-2.03125-3.37890625t-0.732421875-4.580078125q0-2.34375,0.703125-4.267578125t1.9921875-3.28125t3.10546875-2.109375t4.04296875-0.751953125q1.5234375,0,2.744140625,0.341796875t2.373046875,1.181640625l0-1.03515625l3.6328125,0l0,19.43359375q0,4.8046875-2.275390625,7.265625t-7.080078125,2.4609375q-1.0546875,0-2.20703125-0.15625t-2.275390625-0.498046875t-2.1875-0.869140625t-1.962890625-1.2890625l1.953125-2.94921875q0.5859375,0.5078125,1.337890625,0.9375t1.611328125,0.732421875t1.77734375,0.478515625t1.8359375,0.17578125q1.50390625,0,2.607421875-0.3125t1.81640625-1.103515625t1.064453125-2.138671875t0.3515625-3.41796875l0-0.29296875z M281.25,45.25390625q0.8984375,0,1.640625-0.17578125t1.34765625-0.458984375t1.064453125-0.654296875t0.791015625-0.78125l0-11.07421875q-0.99609375-0.87890625-2.294921875-1.26953125t-2.666015625-0.390625q-1.2890625,0-2.421875,0.478515625t-1.982421875,1.396484375t-1.337890625,2.24609375t-0.48828125,3.046875q0,1.875,0.46875,3.30078125t1.30859375,2.392578125t2.01171875,1.455078125t2.55859375,0.48828125z M298.1640625,38.3203125q0,0.859375,0.126953125,1.572265625t0.361328125,1.357421875q0.72265625,1.953125,2.314453125,2.939453125t3.603515625,0.986328125q1.58203125,0,3.076171875-0.439453125t3.134765625-1.376953125l1.46484375,2.48046875q-1.9921875,1.3671875-4.00390625,2.03125t-4.1796875,0.6640625q-2.05078125,0-3.798828125-0.68359375t-3.0078125-2.03125t-1.97265625-3.359375t-0.712890625-4.6875q0-2.16796875,0.60546875-4.091796875t1.806640625-3.359375t2.978515625-2.275390625t4.140625-0.83984375q2.28515625,0,3.818359375,0.693359375t2.5,1.8359375t1.46484375,2.607421875t0.693359375,2.98828125q0.09765625,0.7421875,0.126953125,1.50390625t0.029296875,1.484375l-14.5703125,0z M303.84765625,30.25390625q-1.26953125,0-2.216796875,0.361328125t-1.611328125,1.03515625t-1.064453125,1.650390625t-0.595703125,2.1875l10.48828125,0q-0.078125-1.1328125-0.361328125-2.08984375t-0.869140625-1.66015625t-1.50390625-1.09375t-2.265625-0.390625z M330.99609375,44.609375l2.8515625,0l0-9.23828125q0-2.32421875-1.181640625-3.525390625t-3.388671875-1.201171875q-1.26953125,0-2.55859375,0.60546875t-2.44140625,1.50390625l0,11.85546875l2.8515625,0l0,3.359375l-9.453125,0l0-3.359375l2.8125,0l0-13.515625l-2.8125,0l0-3.359375l6.4453125,0l0,2.3828125l0.0390625,0q0.64453125-0.56640625,1.376953125-1.07421875t1.533203125-0.87890625t1.669921875-0.5859375t1.826171875-0.21484375q1.62109375,0,2.9296875,0.44921875t2.2265625,1.3671875t1.416015625,2.353515625t0.498046875,3.388671875l0,9.6875l2.8125,0l0,3.359375l-9.453125,0l0-3.359375z M356.2890625,17.578125l6.38671875,0l0,27.03125l2.96875,0l0,3.359375l-6.6015625,0l0-1.66015625q-0.9765625,0.99609375-2.265625,1.552734375t-2.9296875,0.556640625q-2.05078125,0-3.818359375-0.712890625t-3.06640625-2.08984375t-2.03125-3.37890625t-0.732421875-4.580078125q0-2.34375,0.703125-4.267578125t1.9921875-3.28125t3.10546875-2.109375t4.04296875-0.751953125q1.46484375,0,2.67578125,0.322265625t2.32421875,1.123046875l0-7.75390625l-2.75390625,0l0-3.359375z M354.31640625,45.25390625q1.62109375,0,2.71484375-0.478515625t2.01171875-1.435546875l0-11.328125q-0.9765625-0.8203125-2.24609375-1.19140625t-2.59765625-0.37109375q-1.2890625,0-2.421875,0.478515625t-1.982421875,1.396484375t-1.337890625,2.24609375t-0.48828125,3.046875q0,1.875,0.46875,3.30078125t1.30859375,2.392578125t2.01171875,1.455078125t2.55859375,0.48828125z M380.419921875,31.767578125q-0.380859375-0.576171875-0.986328125-0.9375t-1.34765625-0.52734375t-1.4453125-0.166015625q-0.78125,0-1.435546875,0.17578125t-1.123046875,0.5078125t-0.732421875,0.810546875t-0.263671875,1.064453125q0,1.015625,0.615234375,1.611328125t2.060546875,1.103515625l3.88671875,1.3671875q2.5,0.83984375,3.65234375,2.28515625t1.15234375,3.45703125q0,1.34765625-0.537109375,2.470703125t-1.5234375,1.9140625t-2.373046875,1.23046875t-3.0859375,0.439453125q-2.36328125,0-3.84765625-0.76171875t-2.28515625-2.01171875l-2.03125,0l0-3.359375l4.04296875,0q0,0.83984375,0.361328125,1.435546875t0.95703125,0.966796875t1.34765625,0.546875t1.533203125,0.17578125q0.76171875,0,1.46484375-0.185546875t1.240234375-0.546875t0.849609375-0.869140625t0.3125-1.15234375q0-0.9765625-0.634765625-1.66015625t-2.158203125-1.23046875l-3.8671875-1.4453125q-2.36328125-0.83984375-3.505859375-2.138671875t-1.142578125-3.251953125q0-1.2890625,0.478515625-2.3828125t1.38671875-1.884765625t2.216796875-1.240234375t2.98828125-0.44921875q2.16796875,0,3.6328125,0.60546875t2.63671875,2.0703125l1.89453125,0l0,3.359375l-4.00390625,0q0-0.8203125-0.380859375-1.396484375z"/></g></svg>