<svg xmlns="http://www.w3.org/2000/svg" xmlns:xlink="http://www.w3.org/1999/xlink" width="400" height="400" viewBox="0 0 400 400">
<rect data-name="background" width="100%" height="100%" fill="#222222"></rect><g data-name="icon" fill="#ffffff" data="id:50222" transform="translate(6.350137479188012, 134.5587414350666) scale(1.2327868852459016)">
  <polygon points="49.075,17.666 41.002,20.878 57.149,20.878 "></polygon><path d="M78.994,23.437h-6.501c-0.664-0.559-1.752-0.941-1.752-1.775c-13.635,0-27.271,0-40.906,0c0,0.833-1.088,1.216-1.752,1.775  h-6.95v4.485h57.86V23.437z"></path><rect x="9.696" y="28.744" width="80.735" height="7.176"></rect><rect x="10.639" y="37.175" width="7.894" height="2.153"></rect><rect x="11.805" y="39.867" width="5.741" height="28.706"></rect><rect x="10.88" y="69.021" width="7.766" height="10.267"></rect><rect x="22.277" y="37.175" width="7.894" height="2.153"></rect><rect x="23.444" y="39.867" width="5.741" height="28.706"></rect><rect x="22.519" y="69.021" width="7.766" height="10.267"></rect><rect x="34.053" y="37.175" width="7.894" height="2.153"></rect><rect x="35.219" y="39.867" width="5.741" height="28.706"></rect><rect x="34.294" y="69.021" width="7.766" height="10.267"></rect><rect x="45.692" y="37.175" width="7.894" height="2.153"></rect><rect x="46.858" y="39.867" width="5.741" height="28.706"></rect><rect x="45.933" y="69.021" width="7.766" height="10.267"></rect><rect x="57.735" y="37.175" width="7.894" height="2.153"></rect><rect x="58.901" y="39.867" width="5.741" height="28.706"></rect><rect x="57.976" y="69.021" width="7.766" height="10.267"></rect><rect x="69.374" y="37.175" width="7.894" height="2.153"></rect><rect x="70.54" y="39.867" width="5.741" height="28.706"></rect><rect x="69.615" y="69.021" width="7.766" height="10.267"></rect><rect x="81.149" y="37.175" width="7.894" height="2.153"></rect><rect x="82.315" y="39.867" width="5.741" height="28.706"></rect><rect x="81.391" y="69.021" width="7.766" height="10.267"></rect><rect x="9.293" y="81.145" width="82.081" height="1.974"></rect><rect x="7.274" y="83.836" width="86.118" height="1.974"></rect><rect x="4.583" y="86.528" width="91.5" height="1.974"></rect>
  </g><g data-name="business_name" fill="#ffffff" data="id:91" transform="translate(148.10739714346622, 162.0772329993605) scale(0.8666126625452995)"><path d="M25.17578125,24.04296875q0.29296875,0,0.517578125,0.205078125t0.224609375,0.537109375q0,0.4296875-0.37109375,0.64453125q-0.05859375,0.0390625-0.517578125,0.37109375t-1.005859375,1.07421875t-1.0546875,1.962890625t-0.64453125,3.017578125q-0.0390625,0.3125-0.048828125,0.625t-0.029296875,0.625q0.3515625-0.0390625,0.732421875-0.068359375t0.810546875-0.029296875q1.40625,0,2.71484375,0.3125t2.40234375,0.8984375q2.83203125-1.1328125,4.3359375-3.0078125t1.50390625-4.1796875q0-1.71875-0.859375-3.056640625t-2.412109375-2.255859375t-3.7109375-1.40625t-4.736328125-0.48828125q-2.24609375,0-4.580078125,0.341796875t-4.51171875,1.025390625t-4.091796875,1.69921875t-3.33984375,2.333984375t-2.24609375,2.939453125t-0.8203125,3.515625q0,1.40625,0.48828125,2.470703125t1.298828125,1.77734375t1.865234375,1.07421875t2.20703125,0.361328125q1.3671875,0,2.40234375-0.2734375t1.73828125-0.595703125t1.064453125-0.60546875t0.400390625-0.322265625q0.13671875-0.09765625,0.3125-0.224609375t0.37109375-0.126953125q0.29296875,0,0.5078125,0.205078125t0.21484375,0.517578125t-0.21484375,0.5078125q-0.0390625,0.0390625-0.498046875,0.419921875t-1.318359375,0.810546875t-2.099609375,0.78125t-2.841796875,0.3515625q-1.484375,0-2.822265625-0.48828125t-2.353515625-1.40625t-1.611328125-2.236328125t-0.595703125-2.998046875q0-1.85546875,0.76171875-3.564453125t2.1484375-3.193359375t3.3203125-2.685546875t4.267578125-2.060546875t5.009765625-1.328125t5.52734375-0.46875q2.91015625,0,5.341796875,0.576171875t4.189453125,1.66015625t2.734375,2.65625t0.9765625,3.564453125q0,2.63671875-1.513671875,4.78515625t-4.443359375,3.57421875q1.07421875,0.91796875,1.689453125,2.138671875t0.91796875,2.470703125t0.390625,2.3828125t0.126953125,1.89453125q0.0390625,1.11328125,0.205078125,1.806640625t0.46875,1.083984375t0.7421875,0.537109375t1.064453125,0.146484375q0.87890625,0,1.62109375-0.419921875t1.337890625-1.044921875t1.0546875-1.357421875t0.771484375-1.3671875t0.478515625-1.0546875t0.166015625-0.439453125q0.1953125-0.48828125,0.68359375-0.48828125q0.33203125,0,0.537109375,0.224609375t0.205078125,0.517578125q0,0.09765625-0.0390625,0.25390625q-0.01953125,0.078125-0.224609375,0.595703125t-0.595703125,1.25t-0.9765625,1.572265625t-1.357421875,1.552734375t-1.73828125,1.181640625t-2.138671875,0.46875q-1.03515625,0-1.728515625-0.33203125t-1.1328125-0.966796875t-0.64453125-1.54296875t-0.244140625-2.080078125q-0.01953125-0.48828125-0.05859375-1.162109375t-0.146484375-1.42578125t-0.302734375-1.552734375t-0.546875-1.5625t-0.87890625-1.4453125t-1.2890625-1.19140625q-1.50390625,0.5078125-3.115234375,0.791015625t-3.330078125,0.302734375l0,0.5859375q0,2.40234375-0.478515625,4.501953125t-1.552734375,3.65234375t-2.7734375,2.44140625t-4.140625,0.888671875q-1.2109375,0-2.392578125-0.322265625t-2.20703125-0.888671875t-1.8359375-1.337890625t-1.279296875-1.669921875q-0.09765625-0.15625-0.09765625-0.3515625q0-0.2734375,0.205078125-0.498046875t0.537109375-0.224609375q0.4296875,0,0.64453125,0.37109375q0.4296875,0.76171875,1.11328125,1.40625t1.533203125,1.103515625t1.81640625,0.712890625t1.962890625,0.25390625q2.01171875,0,3.4375-0.712890625t2.32421875-2.03125t1.30859375-3.1640625t0.41015625-4.130859375l0-0.76171875q-0.64453125-0.21484375-1.03515625-0.60546875t-0.390625-0.95703125t0.37109375-0.99609375t1.0546875-0.703125q0-0.44921875,0.01953125-0.888671875t0.05859375-0.869140625q0.1171875-1.40625,0.439453125-2.51953125t0.76171875-1.953125t0.908203125-1.42578125t0.87890625-0.966796875t0.68359375-0.556640625t0.3125-0.1953125q0.13671875-0.078125,0.33203125-0.078125z M27.01171875,34.94140625q-0.33203125-0.09765625-0.64453125-0.1953125t-0.673828125-0.166015625t-0.80078125-0.1171875t-1.005859375-0.048828125q-1.015625,0-1.66015625,0.1171875l0,0.01953125l0,0.9375q1.19140625,0,2.451171875-0.13671875t2.333984375-0.41015625z M56.328125,42.51953125q-0.078125,0.15625-0.322265625,0.654296875t-0.625,1.142578125t-0.888671875,1.34765625t-1.1328125,1.2890625t-1.34765625,0.966796875t-1.5234375,0.380859375q-1.1328125,0-1.904296875-0.72265625t-1.123046875-1.81640625q-0.6640625,1.11328125-1.58203125,1.767578125t-1.8359375,0.654296875q-0.72265625,0-1.30859375-0.263671875t-0.99609375-0.7421875t-0.634765625-1.123046875t-0.224609375-1.40625q0-1.5234375,0.517578125-2.685546875t1.318359375-1.943359375t1.767578125-1.171875t1.865234375-0.390625q0.60546875,0,1.11328125,0.166015625t0.869140625,0.361328125t0.556640625,0.361328125t0.21484375,0.185546875q0.21484375,0.25390625,0.21484375,0.52734375q0,0.29296875-0.21484375,0.517578125t-0.5078125,0.224609375q-0.3125,0-0.52734375-0.21484375q-0.0390625-0.0390625-0.17578125-0.146484375t-0.37109375-0.224609375t-0.556640625-0.205078125t-0.732421875-0.087890625q-0.60546875,0-1.2890625,0.2734375t-1.25,0.849609375t-0.947265625,1.4453125t-0.380859375,2.060546875q0,0.37109375,0.078125,0.751953125t0.2734375,0.693359375t0.52734375,0.5078125t0.8203125,0.1953125q0.3515625,0,0.810546875-0.234375t0.87890625-0.72265625t0.76171875-1.23046875t0.478515625-1.7578125q0.0390625-0.2734375,0.25390625-0.458984375t0.5078125-0.185546875q0.2734375,0,0.478515625,0.21484375t0.224609375,0.48828125q0.01953125,0.37109375,0.078125,1.044921875t0.263671875,1.337890625t0.615234375,1.15234375t1.1328125,0.48828125q0.46875,0,0.927734375-0.25390625t0.8984375-0.673828125t0.83984375-0.95703125t0.732421875-1.083984375t0.5859375-1.0546875t0.4296875-0.87890625q0.09765625-0.21484375,0.283203125-0.33203125t0.400390625-0.1171875q0.33203125,0,0.537109375,0.244140625t0.205078125,0.517578125q0,0.13671875-0.05859375,0.2734375z M59.31640625,46.2109375q0.3125-0.64453125,0.72265625-1.416015625t0.87890625-1.5625t0.986328125-1.572265625t1.083984375-1.484375q0.56640625-0.68359375,1.142578125-0.986328125t1.083984375-0.302734375q1.015625,0,1.50390625,0.7421875t0.48828125,1.8359375q0,0.25390625-0.029296875,0.615234375t-0.05859375,0.771484375t-0.05859375,0.830078125t-0.029296875,0.791015625q0,0.46875,0.048828125,0.8984375t0.185546875,0.751953125t0.390625,0.5078125t0.6640625,0.185546875q0.7421875,0,1.4453125-0.576171875t1.298828125-1.3671875t1.03515625-1.611328125t0.654296875-1.328125q0.09765625-0.21484375,0.283203125-0.33203125t0.400390625-0.1171875q0.33203125,0,0.537109375,0.244140625t0.205078125,0.517578125q0,0.13671875-0.05859375,0.2734375q-0.078125,0.15625-0.3125,0.64453125t-0.615234375,1.123046875t-0.888671875,1.34765625t-1.123046875,1.298828125t-1.328125,0.9765625t-1.494140625,0.390625q-0.87890625,0-1.42578125-0.341796875t-0.859375-0.8984375t-0.419921875-1.23046875t-0.107421875-1.357421875q0-0.29296875,0.029296875-0.6640625t0.078125-0.78125t0.078125-0.8203125t0.029296875-0.78125q0-0.625-0.1953125-0.849609375t-0.3515625-0.224609375q-0.3125,0-0.712890625,0.361328125t-0.83984375,0.947265625t-0.8984375,1.318359375t-0.859375,1.455078125t-0.7421875,1.376953125t-0.537109375,1.083984375q-0.390625,0.8203125-0.78125,1.103515625t-0.80078125,0.283203125q-0.56640625,0-0.908203125-0.341796875t-0.341796875-0.966796875q0-0.13671875,0.0390625-0.537109375t0.09765625-0.95703125t0.1171875-1.201171875t0.1171875-1.279296875t0.09765625-1.181640625t0.0390625-0.91796875q0-0.48828125-0.0390625-0.9375t-0.15625-0.546875q-0.17578125,0.05859375-0.625,0.732421875t-1.15234375,2.373046875q-0.09765625,0.21484375-0.29296875,0.33203125t-0.41015625,0.1171875q-0.33203125,0-0.52734375-0.224609375t-0.1953125-0.517578125q0-0.13671875,0.05859375-0.29296875q0.87890625-2.08984375,1.650390625-3.076171875t1.533203125-0.986328125q0.44921875,0,0.76171875,0.224609375t0.498046875,0.595703125t0.2734375,0.8203125t0.087890625,0.91796875q0,0.3515625-0.048828125,1.09375t-0.126953125,1.591796875t-0.146484375,1.689453125t-0.126953125,1.40625z M77.6953125,45.56640625q0.33203125,0.7421875,1.09375,1.181640625t1.71875,0.439453125q0.29296875,0,0.95703125-0.087890625t1.533203125-0.5859375t1.845703125-1.572265625t1.89453125-3.02734375q0.09765625-0.21484375,0.2734375-0.322265625t0.390625-0.107421875q0.33203125,0,0.537109375,0.234375t0.205078125,0.5078125q0,0.1171875-0.078125,0.3125q-0.68359375,1.42578125-1.5234375,2.548828125t-1.81640625,1.9140625t-2.041015625,1.2109375t-2.177734375,0.419921875q-0.87890625,0-1.650390625-0.2734375t-1.328125-0.732421875t-0.87890625-1.03515625t-0.322265625-1.181640625q0-0.078125,0.01953125-0.21484375t0.107421875-0.302734375t0.25390625-0.3125t0.458984375-0.244140625q0.80078125-0.234375,1.474609375-0.576171875t1.162109375-0.771484375t0.76171875-0.947265625t0.2734375-1.123046875q0-0.52734375-0.3515625-0.859375t-0.859375-0.33203125q-0.52734375,0-1.03515625,0.361328125t-0.986328125,0.95703125t-0.908203125,1.3671875t-0.791015625,1.611328125t-0.634765625,1.669921875t-0.44921875,1.533203125q-0.05859375,0.21484375-0.126953125,0.46875t-0.205078125,0.478515625t-0.33203125,0.37109375t-0.5078125,0.146484375q-0.29296875,0-0.56640625-0.244140625t-0.2734375-0.830078125q0-0.1171875,0.009765625-0.8984375t0.029296875-2.041015625t0.048828125-2.890625t0.048828125-3.45703125t0.05859375-3.759765625t0.05859375-3.76953125t0.048828125-3.486328125t0.048828125-2.9296875t0.029296875-2.08984375t0.009765625-0.966796875q0-0.3125,0.234375-0.517578125t0.5078125-0.205078125q0.3125,0,0.52734375,0.205078125t0.21484375,0.537109375q0,0.0390625-0.009765625,0.771484375t-0.029296875,1.962890625t-0.048828125,2.87109375t-0.05859375,3.486328125t-0.05859375,3.798828125t-0.05859375,3.80859375t-0.048828125,3.53515625t-0.0390625,2.96875q0.3125-0.99609375,0.80078125-2.099609375t1.15234375-2.041015625t1.494140625-1.54296875t1.845703125-0.60546875q0.56640625,0,1.0546875,0.205078125t0.849609375,0.56640625t0.56640625,0.849609375t0.205078125,1.0546875q0,0.87890625-0.390625,1.611328125t-1.03515625,1.30859375t-1.474609375,1.005859375t-1.708984375,0.703125z M89.921875,32.63671875q0,0.7421875-0.517578125,1.259765625t-1.259765625,0.517578125t-1.259765625-0.517578125t-0.517578125-1.259765625q0-0.37109375,0.13671875-0.693359375t0.380859375-0.56640625t0.56640625-0.380859375t0.693359375-0.13671875t0.693359375,0.13671875t0.56640625,0.380859375t0.380859375,0.56640625t0.13671875,0.693359375z M86.7578125,44.08203125q0-2.8125,0.3515625-5.60546875q0.0390625-0.2734375,0.244140625-0.478515625t0.537109375-0.205078125q0.29296875,0,0.48828125,0.224609375t0.1953125,0.517578125q0,0.1171875-0.048828125,0.703125t-0.1171875,1.396484375t-0.1171875,1.71875t-0.048828125,1.669921875q0,1.03515625,0.205078125,1.669921875t0.52734375,0.986328125t0.68359375,0.46875t0.693359375,0.1171875q0.546875,0,1.1328125-0.390625t1.201171875-1.09375t1.240234375-1.689453125t1.23046875-2.197265625q0.09765625-0.1953125,0.2734375-0.302734375t0.390625-0.107421875q0.3125,0,0.517578125,0.234375t0.205078125,0.5078125q0,0.1953125-0.078125,0.33203125q-0.234375,0.44921875-0.5859375,1.09375t-0.80078125,1.328125t-0.986328125,1.357421875t-1.142578125,1.2109375t-1.26953125,0.869140625t-1.34765625,0.33203125q-0.87890625,0-1.54296875-0.37109375t-1.123046875-0.99609375t-0.68359375-1.474609375t-0.224609375-1.826171875z M88.828125,32.63671875q0-0.2734375-0.205078125-0.478515625t-0.478515625-0.205078125t-0.46875,0.205078125t-0.1953125,0.478515625t0.1953125,0.46875t0.46875,0.1953125t0.478515625-0.1953125t0.205078125-0.46875z M99.47265625,46.2109375q0.3125-0.64453125,0.72265625-1.416015625t0.87890625-1.5625t0.986328125-1.572265625t1.083984375-1.484375q0.56640625-0.68359375,1.142578125-0.986328125t1.083984375-0.302734375q1.015625,0,1.50390625,0.7421875t0.48828125,1.8359375q0,0.25390625-0.029296875,0.615234375t-0.05859375,0.771484375t-0.05859375,0.830078125t-0.029296875,0.791015625q0,0.46875,0.048828125,0.8984375t0.185546875,0.751953125t0.390625,0.5078125t0.6640625,0.185546875q0.7421875,0,1.4453125-0.576171875t1.298828125-1.3671875t1.03515625-1.611328125t0.654296875-1.328125q0.09765625-0.21484375,0.283203125-0.33203125t0.400390625-0.1171875q0.33203125,0,0.537109375,0.244140625t0.205078125,0.517578125q0,0.13671875-0.05859375,0.2734375q-0.078125,0.15625-0.3125,0.64453125t-0.615234375,1.123046875t-0.888671875,1.34765625t-1.123046875,1.298828125t-1.328125,0.9765625t-1.494140625,0.390625q-0.87890625,0-1.42578125-0.341796875t-0.859375-0.8984375t-0.419921875-1.23046875t-0.107421875-1.357421875q0-0.29296875,0.029296875-0.6640625t0.078125-0.78125t0.078125-0.8203125t0.029296875-0.78125q0-0.625-0.1953125-0.849609375t-0.3515625-0.224609375q-0.3125,0-0.712890625,0.361328125t-0.83984375,0.947265625t-0.8984375,1.318359375t-0.859375,1.455078125t-0.7421875,1.376953125t-0.537109375,1.083984375q-0.390625,0.8203125-0.78125,1.103515625t-0.80078125,0.283203125q-0.56640625,0-0.908203125-0.341796875t-0.341796875-0.966796875q0-0.13671875,0.0390625-0.537109375t0.09765625-0.95703125t0.1171875-1.201171875t0.1171875-1.279296875t0.09765625-1.181640625t0.0390625-0.91796875q0-0.48828125-0.0390625-0.9375t-0.15625-0.546875q-0.17578125,0.05859375-0.625,0.732421875t-1.15234375,2.373046875q-0.09765625,0.21484375-0.29296875,0.33203125t-0.41015625,0.1171875q-0.33203125,0-0.52734375-0.224609375t-0.1953125-0.517578125q0-0.13671875,0.05859375-0.29296875q0.87890625-2.08984375,1.650390625-3.076171875t1.533203125-0.986328125q0.44921875,0,0.76171875,0.224609375t0.498046875,0.595703125t0.2734375,0.8203125t0.087890625,0.91796875q0,0.3515625-0.048828125,1.09375t-0.126953125,1.591796875t-0.146484375,1.689453125t-0.126953125,1.40625z M120,49.8828125q3.671875-4.78515625,5.09765625-7.94921875q0.09765625-0.21484375,0.263671875-0.322265625t0.380859375-0.107421875q0.33203125,0,0.546875,0.224609375t0.21484375,0.517578125q0,0.13671875-0.05859375,0.2734375q-0.859375,1.953125-2.44140625,4.35546875t-4.00390625,5.4296875q0,1.23046875,0.01953125,2.4609375t0.01953125,2.6953125t-0.068359375,2.900390625t-0.244140625,2.734375t-0.478515625,2.40234375t-0.78125,1.9140625t-1.15234375,1.26953125t-1.591796875,0.458984375q-1.30859375,0-2.01171875-0.99609375t-0.703125-2.83203125q0-0.9765625,0.185546875-2.119140625t0.537109375-2.353515625t0.849609375-2.451171875t1.103515625-2.412109375t1.318359375-2.24609375t1.513671875-1.953125q0.01953125-1.3671875,0.029296875-2.71484375t0.048828125-2.48046875q-0.5859375,0.7421875-1.396484375,1.171875t-1.611328125,0.4296875q-0.68359375,0-1.240234375-0.263671875t-0.947265625-0.7421875t-0.60546875-1.123046875t-0.21484375-1.40625q0-1.5234375,0.517578125-2.685546875t1.318359375-1.943359375t1.767578125-1.171875t1.865234375-0.390625q0.60546875,0,1.11328125,0.15625t0.869140625,0.3515625t0.556640625,0.37109375t0.21484375,0.1953125q0.21484375,0.234375,0.21484375,0.52734375t-0.21484375,0.517578125t-0.5078125,0.224609375q-0.2734375,0-0.52734375-0.21484375q-0.078125-0.05859375-0.205078125-0.166015625t-0.33203125-0.224609375t-0.48828125-0.1953125t-0.673828125-0.078125q-0.5859375,0-1.2890625,0.263671875t-1.30859375,0.830078125t-1.015625,1.455078125t-0.41015625,2.138671875q0,0.9375,0.41015625,1.513671875t1.26953125,0.576171875q0.41015625,0,0.869140625-0.234375t0.888671875-0.72265625t0.751953125-1.23046875t0.458984375-1.7578125q0.0390625-0.2734375,0.25390625-0.458984375t0.5078125-0.185546875q0.33203125,0,0.517578125,0.234375t0.185546875,0.52734375q0,0.01953125-0.01953125,0.595703125t-0.0390625,1.533203125t-0.048828125,2.216796875t-0.048828125,2.666015625z M118.515625,54.16015625q-0.91796875,1.26953125-1.66015625,2.763671875t-1.26953125,3.017578125t-0.810546875,2.958984375t-0.283203125,2.568359375q0,0.72265625,0.126953125,1.15234375t0.3125,0.6640625t0.41015625,0.3125t0.419921875,0.078125q0.60546875,0,1.0546875-0.48828125t0.76171875-1.298828125t0.5078125-1.865234375t0.29296875-2.177734375t0.13671875-2.236328125t0.0390625-2.05078125l0-1.6796875t-0.0390625-1.71875z  M142.890625,45.8203125q-0.48828125,0-0.859375-0.078125q-0.29296875,0.5859375-0.703125,1.083984375t-0.947265625,0.869140625t-1.201171875,0.5859375t-1.4453125,0.21484375q-0.91796875,0-1.6796875-0.322265625t-1.328125-0.8984375t-0.87890625-1.38671875t-0.3125-1.787109375q0-1.25,0.44921875-2.177734375t1.03515625-1.54296875t1.171875-0.91796875t0.87890625-0.302734375q0.33203125,0,0.498046875,0.17578125t0.166015625,0.46875q0,0.33203125-0.205078125,0.498046875t-0.517578125,0.322265625t-0.6640625,0.439453125t-0.654296875,0.712890625t-0.498046875,1.015625t-0.1953125,1.30859375q0,0.64453125,0.1953125,1.201171875t0.56640625,0.95703125t0.87890625,0.625t1.1328125,0.224609375q1.11328125,0,1.845703125-0.517578125t1.123046875-1.318359375q-1.15234375-0.60546875-1.89453125-1.71875t-0.7421875-2.5q0-1.11328125,0.537109375-1.81640625t1.416015625-0.703125q0.52734375,0,0.99609375,0.25390625t0.830078125,0.80078125t0.576171875,1.40625t0.21484375,2.05078125q0,0.625-0.15625,1.30859375q0.1171875,0.01953125,0.234375,0.01953125l0.25390625,0q0.6640625,0,1.19140625-0.15625t0.95703125-0.46875t0.771484375-0.80078125t0.654296875-1.1328125q0.05859375-0.1171875,0.25390625-0.224609375t0.390625-0.107421875q0.25390625,0,0.478515625,0.205078125t0.224609375,0.537109375q0,0.15625-0.078125,0.341796875t-0.15625,0.341796875q-0.33203125,0.5859375-0.771484375,1.123046875t-1.03515625,0.9375t-1.337890625,0.634765625t-1.66015625,0.21484375z M139.55078125,40.8984375q0,0.37109375,0.09765625,0.78125t0.302734375,0.810546875t0.5078125,0.76171875t0.712890625,0.615234375q0.05859375-0.41015625,0.05859375-0.80078125q0-0.52734375-0.078125-1.07421875t-0.224609375-1.005859375t-0.361328125-0.7421875t-0.5078125-0.283203125q-0.1171875,0-0.3125,0.17578125t-0.1953125,0.76171875z M148.046875,48.92578125q1.4453125-0.64453125,2.626953125-1.484375t2.109375-1.767578125t1.58203125-1.89453125t1.044921875-1.845703125q0.17578125-0.4296875,0.6640625-0.4296875q0.33203125,0,0.537109375,0.224609375t0.205078125,0.498046875q0,0.15625-0.05859375,0.29296875q-0.4296875,0.95703125-1.09375,1.982421875t-1.611328125,2.01171875t-2.216796875,1.904296875t-2.91015625,1.6796875q1.0546875,1.09375,1.8359375,2.431640625t1.298828125,2.783203125t0.78125,2.919921875t0.263671875,2.822265625q0,1.23046875-0.224609375,2.314453125t-0.6640625,1.884765625t-1.064453125,1.259765625t-1.42578125,0.458984375q-1.171875,0-1.81640625-0.869140625t-0.947265625-2.40234375t-0.3515625-3.61328125t-0.048828125-4.521484375l0-2.822265625t0.009765625-3.45703125t0.01953125-3.8671875t0.029296875-4.052734375t0.0390625-3.994140625t0.05859375-3.720703125q0.05859375-3.359375,0.234375-5.99609375t0.56640625-4.453125t1.064453125-2.763671875t1.708984375-0.947265625q0.8203125,0,1.38671875,0.458984375t0.91796875,1.23046875t0.5078125,1.806640625t0.15625,2.16796875q0,2.3828125-0.41015625,4.609375t-1.11328125,4.31640625t-1.650390625,4.08203125t-2.021484375,3.92578125l0,1.728515625l0,1.85546875t-0.009765625,1.77734375t-0.009765625,1.474609375z M148.10546875,39.08203125q0.80078125-1.50390625,1.474609375-3.173828125t1.162109375-3.447265625t0.76171875-3.6328125t0.2734375-3.73046875q0-0.9375-0.087890625-1.69921875t-0.2734375-1.298828125t-0.46875-0.83984375t-0.654296875-0.302734375q-0.390625,0-0.68359375,0.46875t-0.5078125,1.25t-0.361328125,1.796875t-0.244140625,2.119140625t-0.15625,2.20703125t-0.087890625,2.0703125t-0.0390625,1.708984375t-0.009765625,1.11328125q-0.01953125,0.78125-0.029296875,1.38671875t-0.029296875,1.19140625t-0.029296875,1.25t-0.009765625,1.5625z M148.046875,51.328125q0,1.23046875-0.009765625,2.294921875t-0.009765625,1.943359375q0,1.81640625,0.01953125,3.59375t0.185546875,3.193359375t0.5078125,2.28515625t0.986328125,0.869140625q0.5859375,0,0.95703125-0.52734375t0.576171875-1.25t0.283203125-1.474609375t0.078125-1.220703125q0-1.19140625-0.224609375-2.5t-0.68359375-2.587890625t-1.123046875-2.470703125t-1.54296875-2.1484375z  M198.61328125,44.78515625q-0.01953125,0.0390625-0.234375,0.33203125t-0.615234375,0.712890625t-0.99609375,0.8984375t-1.40625,0.87890625t-1.826171875,0.673828125t-2.24609375,0.2734375q-1.9140625,0-3.59375-0.478515625t-3.232421875-1.220703125t-3.056640625-1.640625t-3.06640625-1.7578125q-0.95703125,1.6015625-2.197265625,2.607421875t-2.578125,1.572265625t-2.65625,0.771484375t-2.431640625,0.205078125q-1.07421875,0-2.177734375-0.224609375t-1.9921875-0.7421875t-1.455078125-1.357421875t-0.56640625-2.08984375q0-1.171875,0.537109375-2.119140625t1.484375-1.611328125t2.236328125-1.025390625t2.7734375-0.361328125q1.11328125,0,2.216796875,0.1953125t2.158203125,0.52734375t2.05078125,0.751953125t1.875,0.849609375q0.1171875-0.3515625,0.205078125-0.703125t0.15625-0.771484375t0.09765625-0.9375t0.029296875-1.201171875q0-0.64453125-0.029296875-1.23046875t-0.05859375-1.279296875t-0.05859375-1.5625t-0.029296875-2.080078125q0-2.79296875,0.546875-5.087890625t1.62109375-3.935546875t2.67578125-2.548828125t3.73046875-0.908203125q1.2890625,0,2.451171875,0.41015625t2.05078125,1.171875t1.40625,1.81640625t0.517578125,2.34375q0,0.703125-0.1953125,1.46484375t-0.537109375,1.396484375t-0.78125,1.044921875t-0.927734375,0.41015625q-0.2734375,0-0.48828125-0.15625t-0.21484375-0.48828125q0-0.234375,0.107421875-0.400390625t0.263671875-0.302734375q0.56640625-0.5078125,0.927734375-1.25t0.361328125-1.71875t-0.400390625-1.767578125t-1.07421875-1.34765625t-1.5625-0.859375t-1.865234375-0.302734375q-1.8359375,0-3.18359375,0.80078125t-2.2265625,2.255859375t-1.298828125,3.515625t-0.419921875,4.580078125q0,1.2109375,0.029296875,2.12890625t0.05859375,1.6796875t0.05859375,1.435546875t0.029296875,1.376953125q0,0.41015625-0.0390625,0.888671875t-0.1171875,0.9765625t-0.205078125,0.9765625t-0.283203125,0.869140625q1.484375,0.78125,2.9296875,1.66015625t2.939453125,1.611328125t3.0859375,1.2109375t3.369140625,0.478515625q1.5625,0,2.705078125-0.46875t1.89453125-1.044921875t1.123046875-1.0546875t0.37109375-0.498046875q0.21484375-0.3515625,0.625-0.3515625q0.33203125,0,0.537109375,0.234375t0.205078125,0.5078125q0,0.21484375-0.1171875,0.390625z M177.05078125,42.734375q-0.83984375-0.41015625-1.767578125-0.810546875t-1.904296875-0.712890625t-2.001953125-0.498046875t-2.041015625-0.185546875q-1.15234375,0-2.16796875,0.244140625t-1.77734375,0.712890625t-1.201171875,1.1328125t-0.439453125,1.50390625q0,0.78125,0.390625,1.357421875t1.044921875,0.95703125t1.513671875,0.56640625t1.796875,0.185546875q1.1328125,0,2.34375-0.185546875t2.34375-0.68359375t2.12890625-1.3671875t1.73828125-2.216796875z M202.59765625,45.8203125q0.41015625,0.56640625,1.0546875,0.908203125t1.58203125,0.341796875q0.95703125,0,1.73828125-0.458984375t1.42578125-1.201171875t1.15234375-1.66015625t0.91796875-1.8359375q0.09765625-0.21484375,0.2734375-0.322265625t0.390625-0.107421875q0.33203125,0,0.537109375,0.234375t0.205078125,0.5078125q0,0.09765625-0.01953125,0.166015625t-0.05859375,0.146484375q-1.34765625,2.96875-2.939453125,4.47265625t-3.603515625,1.54296875q-1.2890625,0-2.2265625-0.498046875t-1.54296875-1.2890625t-0.8984375-1.787109375t-0.29296875-1.9921875t0.244140625-1.8359375t0.703125-1.46484375t1.09375-0.9765625t1.396484375-0.3515625q0.44921875,0,0.888671875,0.185546875t0.791015625,0.52734375t0.56640625,0.830078125t0.21484375,1.11328125q0,0.80078125-0.2734375,1.50390625t-0.751953125,1.30859375t-1.142578125,1.11328125t-1.42578125,0.87890625z M202.01171875,44.55078125q0.60546875-0.25390625,1.103515625-0.64453125t0.849609375-0.859375t0.546875-0.986328125t0.1953125-1.044921875q0-0.5859375-0.29296875-0.888671875t-0.68359375-0.302734375q-0.52734375,0-0.8984375,0.29296875t-0.60546875,0.76171875t-0.341796875,1.044921875t-0.107421875,1.142578125q0,0.3515625,0.068359375,0.7421875t0.166015625,0.7421875z M217.5390625,49.8828125q3.671875-4.78515625,5.09765625-7.94921875q0.09765625-0.21484375,0.263671875-0.322265625t0.380859375-0.107421875q0.33203125,0,0.546875,0.224609375t0.21484375,0.517578125q0,0.13671875-0.05859375,0.2734375q-0.859375,1.953125-2.44140625,4.35546875t-4.00390625,5.4296875q0,1.23046875,0.01953125,2.4609375t0.01953125,2.6953125t-0.068359375,2.900390625t-0.244140625,2.734375t-0.478515625,2.40234375t-0.78125,1.9140625t-1.15234375,1.26953125t-1.591796875,0.458984375q-1.30859375,0-2.01171875-0.99609375t-0.703125-2.83203125q0-0.9765625,0.185546875-2.119140625t0.537109375-2.353515625t0.849609375-2.451171875t1.103515625-2.412109375t1.318359375-2.24609375t1.513671875-1.953125q0.01953125-1.3671875,0.029296875-2.71484375t0.048828125-2.48046875q-0.5859375,0.7421875-1.396484375,1.171875t-1.611328125,0.4296875q-0.68359375,0-1.240234375-0.263671875t-0.947265625-0.7421875t-0.60546875-1.123046875t-0.21484375-1.40625q0-1.5234375,0.517578125-2.685546875t1.318359375-1.943359375t1.767578125-1.171875t1.865234375-0.390625q0.60546875,0,1.11328125,0.15625t0.869140625,0.3515625t0.556640625,0.37109375t0.21484375,0.1953125q0.21484375,0.234375,0.21484375,0.52734375t-0.21484375,0.517578125t-0.5078125,0.224609375q-0.2734375,0-0.52734375-0.21484375q-0.078125-0.05859375-0.205078125-0.166015625t-0.33203125-0.224609375t-0.48828125-0.1953125t-0.673828125-0.078125q-0.5859375,0-1.2890625,0.263671875t-1.30859375,0.830078125t-1.015625,1.455078125t-0.41015625,2.138671875q0,0.9375,0.41015625,1.513671875t1.26953125,0.576171875q0.41015625,0,0.869140625-0.234375t0.888671875-0.72265625t0.751953125-1.23046875t0.458984375-1.7578125q0.0390625-0.2734375,0.25390625-0.458984375t0.5078125-0.185546875q0.33203125,0,0.517578125,0.234375t0.185546875,0.52734375q0,0.01953125-0.01953125,0.595703125t-0.0390625,1.533203125t-0.048828125,2.216796875t-0.048828125,2.666015625z M216.0546875,54.16015625q-0.91796875,1.26953125-1.66015625,2.763671875t-1.26953125,3.017578125t-0.810546875,2.958984375t-0.283203125,2.568359375q0,0.72265625,0.126953125,1.15234375t0.3125,0.6640625t0.41015625,0.3125t0.419921875,0.078125q0.60546875,0,1.0546875-0.48828125t0.76171875-1.298828125t0.5078125-1.865234375t0.29296875-2.177734375t0.13671875-2.236328125t0.0390625-2.05078125l0-1.6796875t-0.0390625-1.71875z M224.98046875,45.8203125q0.41015625,0.56640625,1.0546875,0.908203125t1.58203125,0.341796875q0.95703125,0,1.73828125-0.458984375t1.42578125-1.201171875t1.15234375-1.66015625t0.91796875-1.8359375q0.09765625-0.21484375,0.2734375-0.322265625t0.390625-0.107421875q0.33203125,0,0.537109375,0.234375t0.205078125,0.5078125q0,0.09765625-0.01953125,0.166015625t-0.05859375,0.146484375q-1.34765625,2.96875-2.939453125,4.47265625t-3.603515625,1.54296875q-1.2890625,0-2.2265625-0.498046875t-1.54296875-1.2890625t-0.8984375-1.787109375t-0.29296875-1.9921875t0.244140625-1.8359375t0.703125-1.46484375t1.09375-0.9765625t1.396484375-0.3515625q0.44921875,0,0.888671875,0.185546875t0.791015625,0.52734375t0.56640625,0.830078125t0.21484375,1.11328125q0,0.80078125-0.2734375,1.50390625t-0.751953125,1.30859375t-1.142578125,1.11328125t-1.42578125,0.87890625z M224.39453125,44.55078125q0.60546875-0.25390625,1.103515625-0.64453125t0.849609375-0.859375t0.546875-0.986328125t0.1953125-1.044921875q0-0.5859375-0.29296875-0.888671875t-0.68359375-0.302734375q-0.52734375,0-0.8984375,0.29296875t-0.60546875,0.76171875t-0.341796875,1.044921875t-0.107421875,1.142578125q0,0.3515625,0.068359375,0.7421875t0.166015625,0.7421875z M237.1875,46.2109375q0.3125-0.64453125,0.72265625-1.416015625t0.87890625-1.5625t0.986328125-1.572265625t1.083984375-1.484375q0.56640625-0.68359375,1.142578125-0.986328125t1.083984375-0.302734375q1.015625,0,1.50390625,0.7421875t0.48828125,1.8359375q0,0.25390625-0.029296875,0.615234375t-0.05859375,0.771484375t-0.05859375,0.830078125t-0.029296875,0.791015625q0,0.46875,0.048828125,0.8984375t0.185546875,0.751953125t0.390625,0.5078125t0.6640625,0.185546875q0.7421875,0,1.4453125-0.576171875t1.298828125-1.3671875t1.03515625-1.611328125t0.654296875-1.328125q0.09765625-0.21484375,0.283203125-0.33203125t0.400390625-0.1171875q0.33203125,0,0.537109375,0.244140625t0.205078125,0.517578125q0,0.13671875-0.05859375,0.2734375q-0.078125,0.15625-0.3125,0.64453125t-0.615234375,1.123046875t-0.888671875,1.34765625t-1.123046875,1.298828125t-1.328125,0.9765625t-1.494140625,0.390625q-0.87890625,0-1.42578125-0.341796875t-0.859375-0.8984375t-0.419921875-1.23046875t-0.107421875-1.357421875q0-0.29296875,0.029296875-0.6640625t0.078125-0.78125t0.078125-0.8203125t0.029296875-0.78125q0-0.625-0.1953125-0.849609375t-0.3515625-0.224609375q-0.3125,0-0.712890625,0.361328125t-0.83984375,0.947265625t-0.8984375,1.318359375t-0.859375,1.455078125t-0.7421875,1.376953125t-0.537109375,1.083984375q-0.390625,0.8203125-0.78125,1.103515625t-0.80078125,0.283203125q-0.56640625,0-0.908203125-0.341796875t-0.341796875-0.966796875q0-0.13671875,0.0390625-0.537109375t0.09765625-0.95703125t0.1171875-1.201171875t0.1171875-1.279296875t0.09765625-1.181640625t0.0390625-0.91796875q0-0.48828125-0.0390625-0.9375t-0.15625-0.546875q-0.17578125,0.05859375-0.625,0.732421875t-1.15234375,2.373046875q-0.09765625,0.21484375-0.29296875,0.33203125t-0.41015625,0.1171875q-0.33203125,0-0.52734375-0.224609375t-0.1953125-0.517578125q0-0.13671875,0.05859375-0.29296875q0.87890625-2.08984375,1.650390625-3.076171875t1.533203125-0.986328125q0.44921875,0,0.76171875,0.224609375t0.498046875,0.595703125t0.2734375,0.8203125t0.087890625,0.91796875q0,0.3515625-0.048828125,1.09375t-0.126953125,1.591796875t-0.146484375,1.689453125t-0.126953125,1.40625z M258.22265625,42.28515625q0.95703125,4.51171875,2.7734375,4.51171875q0.703125,0,1.34765625-0.517578125t1.201171875-1.26953125t0.986328125-1.591796875t0.703125-1.46484375q0.1953125-0.46875,0.68359375-0.46875q0.3125,0,0.52734375,0.234375t0.21484375,0.5078125q0,0.15625-0.05859375,0.2734375q-0.13671875,0.33203125-0.400390625,0.888671875t-0.64453125,1.19140625t-0.849609375,1.298828125t-1.03515625,1.19140625t-1.201171875,0.869140625t-1.337890625,0.341796875q-1.30859375,0-2.24609375-0.908203125t-1.62109375-2.998046875q-0.9375,1.9921875-1.89453125,2.890625t-2.0703125,0.8984375q-0.5859375,0-1.1328125-0.185546875t-0.95703125-0.615234375t-0.6640625-1.103515625t-0.25390625-1.650390625q0-1.34765625,0.46875-2.48046875t1.2109375-1.943359375t1.650390625-1.259765625t1.806640625-0.44921875q0.29296875,0,0.5078125,0.205078125t0.21484375,0.517578125q0,0.2734375-0.17578125,0.48828125t-0.46875,0.25390625q-0.5859375,0.078125-1.25,0.37109375t-1.220703125,0.849609375t-0.91796875,1.416015625t-0.361328125,2.05078125q0,0.9765625,0.400390625,1.5234375t1.162109375,0.546875q0.3125,0,0.6640625-0.166015625t0.751953125-0.654296875t0.87890625-1.38671875t1.064453125-2.36328125q-0.33203125-1.71875-0.60546875-3.96484375t-0.2734375-5.01953125q0-1.2109375,0.078125-2.529296875t0.25390625-2.578125t0.46875-2.392578125t0.712890625-1.9921875t0.986328125-1.357421875t1.2890625-0.498046875q0.64453125,0,1.09375,0.3515625t0.732421875,0.9765625t0.419921875,1.50390625t0.13671875,1.93359375q0,2.265625-0.390625,4.53125t-0.966796875,4.3359375t-1.220703125,3.828125t-1.171875,3.02734375z M260.5078125,26.54296875q0-0.48828125-0.029296875-1.0546875t-0.13671875-1.064453125t-0.283203125-0.830078125t-0.46875-0.33203125q-0.48828125,0-0.908203125,0.859375t-0.732421875,2.255859375t-0.498046875,3.1640625t-0.185546875,3.564453125q0,1.71875,0.13671875,3.4375t0.3125,3.06640625q0.56640625-1.50390625,1.07421875-3.095703125t0.888671875-3.251953125t0.60546875-3.349609375t0.224609375-3.369140625z M267.421875,40.7421875q-0.1171875,0.3125-0.283203125,0.703125t-0.380859375,0.8203125q-0.17578125,0.33203125-0.361328125,0.517578125t-0.478515625,0.185546875q-0.33203125,0-0.52734375-0.205078125t-0.1953125-0.478515625q0-0.09765625,0.01953125-0.166015625t0.09765625-0.224609375q0.5078125-0.9765625,0.751953125-1.708984375t0.400390625-1.533203125q-0.13671875-0.44921875-0.1953125-0.76171875t-0.05859375-0.64453125q0-0.64453125,0.2734375-1.044921875t0.76171875-0.400390625q0.44921875,0,0.712890625,0.390625t0.263671875,0.95703125q0,0.3125-0.05859375,0.625t-0.15625,0.78125q0.44921875,1.11328125,0.8984375,1.97265625t0.80078125,1.572265625t0.576171875,1.337890625t0.224609375,1.25q0,0.8203125-0.33203125,1.5625t-1.09375,1.25q0.09765625,0.01953125,0.1953125,0.01953125l0.1953125,0q1.11328125,0,2.05078125-0.5078125t1.689453125-1.318359375t1.337890625-1.796875t1.015625-1.962890625q0.1953125-0.44921875,0.546875-0.44921875q0.33203125,0,0.517578125,0.234375t0.185546875,0.5078125q0,0.15625-0.05859375,0.29296875q-0.21484375,0.52734375-0.556640625,1.201171875t-0.8203125,1.38671875t-1.103515625,1.396484375t-1.396484375,1.220703125t-1.689453125,0.859375t-2.01171875,0.322265625q-1.30859375,0-2.431640625-0.458984375t-1.826171875-1.513671875q-0.1171875-0.17578125-0.1171875-0.37109375q0-0.29296875,0.224609375-0.517578125t0.517578125-0.224609375q0.3125,0,0.52734375,0.21484375q0.01953125,0.0390625,0.13671875,0.126953125t0.283203125,0.1953125t0.390625,0.185546875t0.458984375,0.078125q0.46875,0,0.791015625-0.1953125t0.517578125-0.478515625t0.283203125-0.60546875t0.087890625-0.556640625q0-0.48828125-0.15625-0.9765625t-0.400390625-0.9765625t-0.52734375-1.005859375t-0.517578125-1.083984375z"></path></g></svg>