<svg xmlns="http://www.w3.org/2000/svg" xmlns:xlink="http://www.w3.org/1999/xlink" width="400" height="400" viewBox="0 0 400 400">
<rect data-name="background" width="100%" height="100%" fill="#000000"/><g data-name="monogram" fill="#FFFFFF" data="id:181" transform="translate(27.52188971965618,144.78505341122332) scale(1.8343850954674101)"><path d="M5.08,48.56c-0.04,0-0.08-0.04-0.12-0.08l-0.16-0.08l-0.24,0.08l-0.2,0.04c-0.04,0-0.04,0-0.04-0.08l0-0.04c0-0.04,0-0.08-0.08-0.08l-0.4,0.08c-0.08,0-0.08-0.04-0.08-0.08l0-0.04c0-0.04,0-0.04-0.04-0.04l-0.12,0c-0.04,0-0.08-0.04-0.12-0.08c-0.04-0.08-0.24-0.2-0.4-0.28c-0.2-0.04-0.36-0.16-0.4-0.24c-0.04-0.12-0.12-0.2-0.16-0.24c-0.12-0.04-0.2-0.48-0.2-0.84c0-0.2,0.04-0.4,0.12-0.4c0.04,0,0.08-0.12,0.08-0.24c-0.04-0.12-0.08-0.16-0.12-0.16l-0.08,0l0.16-0.4l-0.08-0.08c-0.08-0.04-0.12-0.08-0.12-0.12s0.04-0.04,0.08-0.04l0.08,0c0.08,0,0.12-0.04,0.12-0.08c-0.04-0.04-0.04-0.08-0.08-0.08l-0.04,0c-0.04,0-0.08-0.08-0.08-0.16s0.04-0.16,0.08-0.2c0.08-0.08,0.08-0.12,0.08-0.2l-0.04-0.16l0-0.48c0-0.12,0.04-0.2,0.12-0.24l0.08-0.04l-0.04-0.04l0-0.08l0.04-0.12l0.04-0.08l-0.16,0c-0.04,0-0.08,0-0.08-0.04c0-0.08,0.04-0.2,0.16-0.36s0.16-0.28,0.16-0.36s-0.04-0.16-0.16-0.24l-0.08-0.08l0.28-0.08c0.04,0,0.04-0.04,0.04-0.08s-0.04-0.08-0.12-0.08l-0.04,0c-0.04,0-0.04-0.04-0.04-0.08s0.04-0.16,0.12-0.24c0.08-0.12,0.12-0.28,0.12-0.4l0-0.12c0-0.08,0-0.12,0.04-0.16l0.08-0.12c0-0.04-0.04-0.08-0.12-0.08l-0.2,0.08l-0.04-0.04l0.04-0.08c0.04-0.08,0.12-0.12,0.2-0.12l0.04,0l0.04-0.08l-0.08-0.44c0-0.04,0.04-0.08,0.08-0.08s0.08-0.04,0.08-0.08l0-0.08l0.04-0.12c0.08-0.04,0.08-0.08,0.08-0.12c0-0.08,0-0.2-0.08-0.32c-0.04-0.12-0.04-0.24-0.04-0.28c0-0.08,0-0.12,0.04-0.12s0.04-0.04,0.04-0.08l0-0.08l0.08-0.44l0.08-0.24c0-0.08-0.04-0.08-0.08-0.08c-0.08-0.04-0.12-0.08-0.12-0.12l0-0.04s0.04-0.04,0.12-0.04l0.08,0c0.04,0,0.08,0,0.08-0.04l0-0.04l-0.12-0.08l0.04-0.12c0.08-0.12,0.12-0.32,0.16-0.48c0-0.56,0.08-1.16,0.16-1.16c0.04,0,0.04,0,0.04-0.04l-0.08-0.2l-0.04-0.16c0-0.04,0-0.08,0.04-0.12s0.08-0.08,0.08-0.12l-0.04-0.16l0.08-0.28l-0.16,0.04l0-0.04c0-0.12,0.04-0.32,0.16-0.52c0.08-0.16,0.12-0.28,0.12-0.36l-0.04-0.12c0-0.04,0-0.12,0.04-0.16l0.08-0.12l-0.08-0.12l-0.04-0.08c0-0.04,0-0.08,0.04-0.08c0.08-0.04,0.12-0.12,0.12-0.16l-0.08-0.24l0.04,0c0.04,0,0.08-0.04,0.08-0.12l-0.12-0.64c0-0.16,0.08-0.32,0.2-0.36c0.08-0.04,0.12-0.08,0.12-0.12l-0.04-0.04c-0.12-0.04-0.16-0.12-0.16-0.24c0-0.16,0.12-0.32,0.24-0.32l0.12-0.04l-0.12-0.08c-0.12-0.04-0.16-0.12-0.16-0.2s0.04-0.16,0.12-0.16s0.16-0.04,0.16-0.16l0-0.04c0-0.08,0-0.2,0.04-0.24l0.04-0.08c0-0.04-0.04-0.08-0.12-0.12s-0.12-0.16-0.12-0.2c0-0.12,0.04-0.16,0.16-0.2c0.12,0,0.16-0.12,0.16-0.24c-0.04-0.12-0.08-0.2-0.12-0.2l-0.08-0.04l0.08-0.08c0.12-0.12,0.2-0.6,0.2-0.88c0-0.08,0-0.12-0.04-0.12l-0.04,0.04l-0.08-0.04c0-0.08,0.08-0.12,0.12-0.12c0.08,0,0.12-0.04,0.12-0.08l0-0.04c0-0.04-0.04-0.08-0.08-0.08s-0.08-0.04-0.08-0.08c0-0.12,0.08-0.24,0.16-0.32l0.04-0.12c0-0.04,0-0.12-0.04-0.16l-0.04-0.12l0.04-0.04c0.04,0,0.08-0.08,0.08-0.16l-0.08-0.56c0-0.08,0.04-0.16,0.08-0.2s0.08-0.08,0.08-0.12l-0.08-0.24l0.16,0l-0.08-0.28l0.08-0.28c0.04-0.08,0.08-0.24,0.08-0.36l-0.04-0.48c0-0.32,0.08-0.68,0.24-0.76l0.04-0.04l-0.08,0c-0.04,0-0.04,0-0.04-0.04c0-0.08,0-0.16,0.08-0.28l0.08-0.28c0-0.08-0.04-0.08-0.08-0.08l-0.04,0l0.32-0.44c0-0.04-0.04-0.04-0.12-0.04l-0.12,0.04l0.08-0.16c0.04-0.04,0.08-0.12,0.08-0.24l0-0.08l0.08-0.32c0.08-0.08,0.12-0.36,0.12-0.6c0-0.28,0.04-0.56,0.08-0.64l0.04-0.12l-0.08-0.2l0.08-0.08l0.08-0.16l-0.04-0.16c0-0.08,0.04-0.12,0.08-0.16l0.08-0.08l-0.16-0.32l0.04-0.2c0.04-0.16,0.08-0.44,0.08-0.64c0-0.12,0-0.2-0.04-0.2c-0.12,0.04-1,0.44-1.4,0.68c-0.36,0.2-0.6,0.28-0.84,0.28c-0.08,0-0.16,0-0.24-0.04l-0.4,0.04l-0.12,0.08l0.04,0.04l0.16-0.04c0.16,0,0.2,0,0.2,0.04l-0.08,0.16l0.08,0.16c0,0.08-0.08,0.12-0.16,0.16c-0.12,0.04-0.44,0.28-0.72,0.48c-0.28,0.24-0.64,0.44-0.84,0.48c-0.32,0.08-0.4,0.12-0.4,0.16l0.04,0.16c0,0.04-0.04,0.08-0.08,0.12l-0.2,0.16c-0.04,0.12-0.68,0.68-0.76,0.68c-0.04,0-0.48,0.44-1.24,1.2c-0.16,0.16-0.24,0.28-0.32,0.28l-0.04-0.04l-0.08-0.04c-0.04,0-0.04,0-0.04,0.08l0,0.12l0.12-0.08l-0.04,0.12c-0.08,0.12-0.2,0.2-0.28,0.2s-0.16,0.08-0.2,0.12c-0.04,0.08-0.12,0.16-0.24,0.24c-0.08,0.04-0.16,0.08-0.16,0.12l0,0.04c0,0.04,0,0.08-0.04,0.08l-0.24,0.36c-0.12,0.2-0.24,0.4-0.32,0.44c-0.04,0.04-0.08,0.12-0.08,0.2l0.04,0.04l0.2-0.16l-0.04,0.08c-0.04,0.08-0.16,0.16-0.24,0.16s-0.24,0.28-0.4,0.64s-0.28,0.76-0.28,1.08c0,0.24,0.08,0.44,0.2,0.52c0.08,0.04,0.12,0.12,0.12,0.16l0,0.08l0.08,0c0.04,0,0.12,0.08,0.12,0.16s0.16,0.2,0.28,0.24s0.2,0.08,0.2,0.16l-0.08,0.2l0.08-0.08c0.08-0.08,0.16-0.16,0.24-0.16c0.04,0,0.08,0.04,0.08,0.08l0,0.04c0,0.08,0.04,0.2,0.12,0.24s0.12,0.08,0.12,0.12l-0.08,0.2l0.04,0.16c0,0.04-0.08,0.08-0.28,0.08l-0.28,0.04l-0.28-0.08l-0.12,0.04c-0.4,0-1.64-0.84-2.36-1.64c-0.56-0.64-0.84-1.2-0.96-1.96l0-0.24c0-0.28,0.04-0.48,0.28-1c0.16-0.4,0.36-0.8,0.44-0.88s0.16-0.2,0.16-0.28s0.28-0.48,0.6-0.8c0.08-0.08,0.12-0.16,0.12-0.24l0-0.04c0-0.08,0.04-0.16,0.12-0.16c0.16,0,0.36-0.28,0.36-0.4l0-0.04c0-0.04,0-0.08,0.08-0.08s0.4-0.28,0.68-0.64l0.6-0.6l0.04,0c0.04,0,0.08-0.08,0.16-0.16c0.08-0.12,0.2-0.24,0.28-0.24c0.04,0,0.12-0.04,0.12-0.08c0.04-0.12,0.48-0.52,0.64-0.6c0.08-0.04,0.12-0.12,0.12-0.16l0-0.04c0-0.08,0.12-0.2,0.24-0.24s0.32-0.16,0.36-0.28l0.28-0.2c0.32-0.08,0.52-0.24,0.56-0.36c0-0.08,0.12-0.2,0.28-0.32l0.24-0.12c0.04,0,0.08,0,0.12,0.04l0.08,0.04l0-0.08c0-0.16,1.28-1.08,1.6-1.12c0.08-0.04,0.2-0.08,0.28-0.16l0.08-0.08l0,0.04c0.04,0,0.12-0.08,0.2-0.16c0.08-0.12,0.32-0.24,0.56-0.32c0.2-0.04,0.6-0.2,0.8-0.32c0.68-0.36,1.36-0.6,1.48-0.6l0.04,0c0,0.04,0.04,0.04,0.08,0.04l0.08,0l-0.08-0.16l-0.04-0.12c0-0.04,0.04-0.08,0.12-0.12l0.16-0.04l0.08,0.04c0.04,0,0.2-0.08,0.32-0.2c0.2-0.24,0.36-0.28,0.72-0.32c0.24-0.04,0.52-0.12,0.6-0.16c0.08-0.08,0.12-0.08,0.2-0.08l0.16,0.08l0-0.08c0.04-0.04,0.2-0.16,0.44-0.2c0.2-0.04,0.52-0.16,0.64-0.2c0.4-0.2,1.48-0.52,2.36-0.68l1.16-0.28c0.04,0,0.08,0,0.08,0.04s0,0.04,0.04,0.04l0.24-0.12l0.28,0.04l0.2-0.04c0.56-0.12,1.04-0.2,1.32-0.2c0.12,0,0.2,0,0.24,0.04s0.08,0.04,0.2,0.04l0.28-0.04c0.36-0.04,0.8-0.08,1.16-0.08c0.32,0,0.6,0.04,0.76,0.08l0.56,0.04c0.28,0,2.08,0.6,2.32,0.76c0.12,0.12,0.24,0.16,0.28,0.16c0.08,0,0.48,0.24,0.92,0.52c0.4,0.28,0.8,0.52,0.84,0.52s0.08,0.04,0.12,0.12c0,0.08,0.12,0.16,0.2,0.2c0.12,0.04,0.24,0.12,0.24,0.2s0.12,0.16,0.24,0.2c0.08,0.08,0.2,0.16,0.2,0.24c0.04,0.04,0.12,0.16,0.24,0.24c0.28,0.24,0.52,0.6,1.16,1.68c0.32,0.52,0.56,1.08,0.56,1.2s0.08,0.2,0.12,0.24c0.12,0,0.2,0.24,0.2,0.44l-0.04,0.2c-0.04,0.04-0.04,0.08-0.12,0.08l-0.04,0c-0.04,0-0.08,0-0.08,0.04c0.04,0.08,0.08,0.16,0.16,0.16s0.16-0.08,0.2-0.16l0.04-0.08c0.04,0,0.04,0.12,0.08,0.36s0.04,0.52,0.08,0.6c0,0.12-0.04,0.2-0.16,0.2c-0.12,0.04-0.16,0.04-0.16,0.16l0.04,0.2c0.04,0.16,0.12,0.28,0.16,0.28l0.04,0.08l-0.04,0.24c-0.08,0.2-0.16,0.36-0.2,0.36c-0.08,0-0.12,0.08-0.16,0.16c0,0.08,0.04,0.12,0.08,0.12s0.04,0.04,0.04,0.08l0,0.08c0,0.04-0.08,0.12-0.12,0.12c-0.12,0.04-0.36,0.4-0.4,0.6c-0.04,0.28-0.08,0.32-0.2,0.32l-0.04,0.08l0,0.08c0,0.2-0.24,0.64-0.36,0.64l-0.36,0.4c-0.12,0.24-0.32,0.48-0.44,0.56l-0.12,0.16c0,0.04,0.04,0.04,0.12,0.04l0.12,0l-0.56,0.52c-0.12,0.08-0.2,0.2-0.2,0.32l0,0.04c0,0.04-0.04,0.08-0.16,0.08c-0.08,0-0.12,0-0.12,0.04l0.04,0l0.04,0.08c0,0.04-0.04,0.16-0.16,0.28c-0.12,0.16-0.2,0.36-0.2,0.4s-0.12,0.12-0.32,0.2c-0.32,0.16-0.48,0.28-0.48,0.36l0.08,0.12l-0.04,0.04c-0.04,0-0.2,0.12-0.28,0.24c-0.12,0.16-0.28,0.32-0.4,0.32c-0.12,0.04-0.2,0.12-0.2,0.24c0,0.16-0.08,0.2-0.36,0.24c-0.12,0-0.2,0.12-0.28,0.4c-0.08,0.2-0.16,0.4-0.2,0.4s-0.16,0.12-0.28,0.24c-0.12,0.16-0.36,0.32-0.56,0.36s-0.28,0.12-0.28,0.2l0.04,0.12l-0.04,0.12l-0.04,0.04l-0.08-0.16c-0.04,0-0.08,0.08-0.08,0.16l0,0.04c0,0.08-0.04,0.12-0.12,0.12s-0.12,0.04-0.12,0.08l0.04,0.08l-0.16,0c-0.08,0-0.12,0.08-0.16,0.2c0,0.12-0.12,0.24-0.24,0.28c-0.12,0.08-0.24,0.16-0.24,0.2l0,0.04l-0.12,0.08c-0.08,0-0.08,0-0.08-0.04l0.08-0.24l-0.16,0.12c-0.08,0.08-0.16,0.24-0.16,0.28c0,0.12-0.24,0.4-0.36,0.44c-0.08,0-0.08-0.04-0.08-0.08s0.08-0.12,0.16-0.16c0.12-0.08,0.16-0.12,0.16-0.2l0-0.12c-0.04-0.08-0.04-0.16-0.08-0.16l-0.08,0.08c-0.04,0.04-0.08,0.08-0.08,0.12l0,0.12c0,0.04-0.12,0.16-0.24,0.28l-0.24,0.2c0,0.04,0.08,0.04,0.16,0.04l0.16,0.04l-0.12,0.04c-0.16,0.04-0.44,0.36-0.44,0.48l0,0.08l-0.04,0c-0.08,0-0.08,0.04-0.08,0.12l0.04,0.04l0.08-0.04c0.08,0,0.2,0.04,0.28,0.16l0.08,0.16c0,0.04,0,0.04-0.08,0.04l-0.12,0l0.12,0.24c0.08,0.08,0.12,0.16,0.16,0.16l0.08-0.12c0.04,0,0.04,0,0.04,0.08c0.04,0.08,0.12,0.16,0.2,0.2c0.12,0.08,0.28,0.36,0.28,0.48l-0.04,0.08c-0.04,0-0.04,0.04-0.04,0.08l0,0.08c0,0.08,0,0.08,0.04,0.08l0.04-0.04c0.04-0.04,0.04-0.08,0.08-0.08l0.04,0l0,0.04c0,0.08-0.04,0.08-0.08,0.12l-0.04,0.08c0,0.04,0.08,0.12,0.32,0.28s0.32,0.24,0.32,0.36l-0.04,0.2c0,0.04,0.04,0.08,0.08,0.12c0.04,0,0.08,0,0.12-0.08l0-0.04l0.2,0.24c0.12,0.2,0.2,0.36,0.2,0.48c0,0.08-0.04,0.12-0.16,0.12c-0.08,0-0.12,0.08-0.12,0.12s0.04,0.08,0.12,0.12l0.08,0l0-0.08l0.04-0.04c0.08,0,0.4,0.36,0.52,0.68c0.12,0.28,0.36,0.52,0.52,0.64c0.24,0.12,0.36,0.28,0.36,0.36l-0.16,0l-0.04,0.04c0,0.08,0.16,0.24,0.32,0.32c0.2,0.08,0.4,0.4,0.4,0.48l-0.08,0c-0.04,0-0.08,0-0.12,0.08c0,0.12,0.32,0.4,0.48,0.4l0.04,0s0.04,0.04,0.04,0.12l0.32,0.76l0.2,0.04l0.08,0c0.04,0,0.08,0.04,0.08,0.08s-0.12,0.08-0.28,0.12s-0.24,0.08-0.24,0.12s0.08,0.08,0.2,0.08l0.08,0c0.04,0,0.08,0,0.08-0.04l0-0.04c0.04,0,0.12,0.04,0.2,0.12l0.12,0.28l0,0.04s-0.04,0-0.12-0.08c-0.04-0.08-0.12-0.16-0.16-0.16l0,0.04l0.08,0.2c0.08,0.08,0.16,0.12,0.2,0.12c0.08,0,0.16-0.08,0.16-0.2l0-0.04c0.04,0,0.04,0.04,0.04,0.12c0,0.16,0.04,0.24,0.12,0.24s0.12,0.04,0.12,0.16s0,0.16,0.04,0.16l0.16-0.04c0.04,0,0.08,0.04,0.08,0.2l0,0.12c0,0.12,0,0.16-0.04,0.2c-0.04,0-0.04,0.04-0.04,0.08l0.04,0.08l0.12-0.04c0.12,0,0.44,0.2,0.44,0.36l0,0.04c0,0.08,0.04,0.16,0.12,0.2s0.2,0.16,0.2,0.28l0.04,0.12c0.04,0,0.04-0.04,0.08-0.08c0.04-0.08,0.04-0.08,0.08-0.08l0.08,0.04l0.08,0.12l-0.08,0.08c-0.08,0-0.12,0.08-0.12,0.12c0,0.08,0.2,0.12,0.32,0.12l0.08,0c0.04,0,0.08,0.04,0.12,0.08c0,0.04-0.08,0.12-0.2,0.12c-0.08,0-0.16,0.08-0.16,0.12l0.08,0.04l0.12-0.04c0.12,0,0.56,0.52,0.56,0.72l0,0.04c0,0.08,0.04,0.16,0.12,0.2c0.12,0.04,0.16,0.04,0.36,0.04c0.04,0,0.08,0.04,0.12,0.08c0,0.16,0.72,0.84,1,1c0.12,0.08,0.2,0.16,0.2,0.28l0,0.2l0.04-0.04c0-0.04,0.04-0.04,0.08-0.04c0.08,0,0.24,0.08,0.52,0.24c0.28,0.2,0.48,0.32,0.6,0.32c0.08,0,0.12-0.04,0.16-0.12l0.12-0.04c0.04,0,0.12,0.04,0.2,0.12l0.2,0.12l0,0.04l0.4,0.16l-0.16,0.04c-0.12,0.04-0.16,0.04-0.16,0.12l0.04,0.2c0,0.04-0.04,0.08-0.12,0.12c-0.08,0-0.36,0.12-0.56,0.28c-0.24,0.16-0.48,0.32-0.56,0.32l-0.2,0.12c-0.04,0.08-0.12,0.12-0.28,0.12l-0.44-0.04l-0.36-0.08l-0.16,0.04l-0.04,0.04l-0.04-0.04l0-0.04c0-0.08-0.2-0.16-0.44-0.28c-0.84-0.36-1.92-1.32-2.68-2.32l-0.48-0.56c-0.24-0.2-0.6-0.6-0.64-0.76c0-0.08-0.08-0.2-0.16-0.24c-0.2-0.12-0.48-0.48-0.48-0.64l-0.04-0.08l-0.08,0c-0.04,0-0.04-0.04-0.08-0.08c0-0.08-0.08-0.2-0.12-0.24c-0.12-0.08-0.2-0.24-0.28-0.48l-0.04-0.04l-0.04,0.04c-0.04,0-0.16-0.08-0.2-0.24l-0.28-0.48c-0.08-0.08-0.12-0.12-0.12-0.16l0-0.04c0-0.04-0.08-0.08-0.16-0.16c-0.16-0.12-0.24-0.24-0.24-0.36l0-0.08c0-0.04,0-0.04-0.08-0.04l-0.16,0c-0.08,0-0.08,0-0.08-0.08l0-0.08c0-0.08-0.04-0.28-0.12-0.36c-0.12-0.12-0.2-0.28-0.2-0.32c-0.04-0.2-0.52-0.8-0.6-0.84c-0.04,0-0.08-0.08-0.12-0.16c0-0.08-0.28-0.52-0.72-1.04l-0.2-0.4c0-0.12-0.08-0.2-0.16-0.2l-0.04,0c-0.12,0-0.2-0.08-0.2-0.16l0.04-0.16c0-0.08-0.04-0.16-0.16-0.24c-0.12-0.12-0.24-0.32-0.24-0.4c-0.04-0.2-0.44-0.76-0.56-0.76c-0.04-0.04-0.08-0.12-0.08-0.2l-0.2-0.32c-0.08-0.08-0.24-0.32-0.28-0.52c-0.12-0.32-0.52-0.76-0.64-0.76c-0.04,0-0.04,0-0.04,0.04l0,0.08c0,0.16-0.16,0.32-0.32,0.32l-0.04,0l-0.16,0.08c0,0.08-0.12,0.12-0.2,0.16c-0.08,0-0.16,0-0.16,0.04l0.08,0.04c0.04,0.04,0.08,0.04,0.08,0.08l-0.04,0.04l-0.12,0.04l-0.04,0c-0.08,0-0.2,0.08-0.28,0.24c-0.08,0.12-0.2,0.24-0.24,0.24c-0.08,0.04-0.24,0.12-0.44,0.28c-0.28,0.2-0.6,0.32-1.24,0.44l-0.16,0.04l0.04,0.04l0.16,0.04l0.4-0.08l-0.12,0.08c-0.12,0.08-0.24,0.12-0.28,0.12l-0.04,0c-0.04,0-0.08,0.04-0.08,0.12l-0.04,0.08l-0.04,0c-0.04,0-0.12,0.04-0.16,0.12s-0.2,0.16-0.36,0.2c-0.12,0.04-0.36,0.2-0.48,0.28c-0.28,0.28-0.76,0.44-1.16,0.44c-0.24,0-0.4-0.08-0.52-0.16c-0.08-0.08-0.16-0.12-0.16-0.16s-0.04-0.08-0.08-0.12s-0.08-0.08-0.08-0.12l0.12-0.04l-0.24-0.04c-0.32,0-0.36,0-0.48-0.4c-0.08-0.32-0.24-0.56-0.32-0.56l0,0.12c0,0.52-0.4,3.56-0.52,3.76l-0.04,0.12l0.08,0.32l-0.04,0.2c-0.08,0.12-0.08,0.28-0.08,0.36l0.04,0.2l-0.12,0.84l0,0.44c-0.04,0.44-0.2,0.8-0.32,0.92l0.16-0.04c0.04,0,0.04,0,0.04,0.04l-0.04,0.24c-0.04,0.16-0.16,0.28-0.24,0.28s-0.16,0.08-0.16,0.16c0.04,0.04,0.04,0.08,0.12,0.08l0.04,0c0.12,0,0.16,0.28,0.16,0.56c0,0.2-0.04,0.4-0.08,0.52c-0.04,0.08-0.08,0.2-0.08,0.28l0.04,0.16l-0.08,0.16l-0.08,0.12l0.2-0.08l0.04,0.04c0,0.08-0.04,0.12-0.08,0.12c-0.12,0-0.24,0.48-0.24,0.8l0,0.16c0.04,0.12,0.04,0.2,0.08,0.2l0.16-0.08l0.04,0.08l-0.08,0.2l-0.04,0.24c0,0.24,0.08,0.6,0.16,0.6c0.04,0,0.08,0.04,0.08,0.08c0,0.08-0.12,0.2-0.24,0.28z M12.12,13.8l0.08-0.04l-0.04-0.04l-0.12,0c0,0.04,0,0.08,0.08,0.08z M4.12,15.24c0.04,0,0.08-0.04,0.12-0.08c0.08-0.08,0.16-0.12,0.2-0.12l0.08,0l-0.04-0.04c-0.04-0.04-0.08-0.08-0.12-0.08c-0.08,0.04-0.12,0.04-0.2,0.12l-0.08,0.16l0,0.04l0.04,0z M12.8,13.88l0.04-0.04l0-0.04l-0.08,0s-0.04,0-0.04,0.04l0,0.04l0.08,0z M14.2,13.84l0.24-0.04c0.16,0,0.28-0.08,0.32-0.12c0-0.04,0-0.08-0.08-0.08z M10.6,14.64l0.16-0.04c0.08-0.08,0.28-0.16,0.4-0.24l0.2-0.08c0.08,0,0.12,0.04,0.12,0.08c0.04,0.04,0.08,0.04,0.12,0.04c0.08,0,0.16-0.04,0.16-0.12l0-0.08c0-0.04,0.04-0.08,0.08-0.12c0-0.04,0-0.04-0.08-0.04l-0.32,0.08c-0.28,0.08-0.48,0.16-0.52,0.2c0,0.04-0.12,0.12-0.2,0.2z M12.16,14.2c0.08,0,0.12-0.04,0.12-0.08s-0.04-0.08-0.08-0.08c-0.08,0.04-0.12,0.08-0.12,0.12l0,0.04l0.08,0z M15.84,13.72l0.08-0.04c0.12,0,0.2-0.04,0.2-0.12l0-0.04c0-0.04,0-0.04-0.04-0.04l-0.16,0.12l-0.08,0.08l0,0.04z M15.12,13.8l0.32-0.04c0.16,0,0.28-0.08,0.28-0.12l-0.08,0c-0.08,0-0.16,0-0.24,0.04c-0.16,0.04-0.28,0.08-0.28,0.12z M5.8,15.44l0.2-0.12l0.08-0.08l-0.12,0c-0.08,0-0.16,0.04-0.2,0.12l0,0.04c0,0.04,0,0.04,0.04,0.04z M9.88,14.84c0.04,0,0.12-0.04,0.12-0.08l-0.08-0.04l-0.08,0c-0.08,0.04-0.12,0.08-0.12,0.12l0.16,0z M16.04,14.24l0.08-0.08l0.04-0.12c0-0.08-0.16-0.16-0.36-0.16c-0.12,0.04-0.2,0.08-0.2,0.12s0.08,0.12,0.16,0.16l0.08,0.04c0.04,0,0.04,0,0.04-0.08s0.04-0.12,0.12-0.12l0.04,0.12l0,0.12z M15.24,14.16c0.04,0,0.12-0.04,0.2-0.12l0.04-0.08l-0.12,0c-0.12,0.04-0.2,0.08-0.2,0.12s0.04,0.08,0.08,0.08z M13.24,14.36l0.08-0.04l0-0.04l-0.08,0c-0.04,0-0.04,0-0.04,0.04l0,0.04l0.04,0z M13.52,14.6c0.12,0,0.24-0.08,0.32-0.16l0.08-0.08l-0.04,0.12c0,0.04,0.04,0.04,0.08,0.04l0.08,0c0.08,0,0.16-0.08,0.16-0.12s0.16-0.12,0.36-0.12c0.2-0.04,0.28-0.04,0.28-0.08l-0.04-0.04c-0.04-0.04-0.12-0.04-0.24-0.04c-0.32,0.04-0.8,0.16-0.88,0.28c-0.04,0.04-0.12,0.08-0.2,0.08l-0.16,0l0,0.04c0.04,0.04,0.12,0.08,0.2,0.08z M11.32,15l0.52-0.16c0.04,0,0.12-0.08,0.12-0.16l0-0.12s-0.04,0-0.04,0.08l-0.28,0.16c-0.12,0-0.24,0.04-0.32,0.12l-0.04,0.04z M10.68,14.92l0.04-0.04l0-0.04l-0.08,0s-0.04,0-0.04,0.04l0,0.04l0.08,0z M12.76,14.6l0.04-0.04l-0.08-0.04l-0.04,0.08l0.08,0z M13.04,14.56l0.04-0.04l-0.08-0.04l-0.04,0.08l0.08,0z M16.72,14.04l0.08-0.04l0-0.04l-0.08,0c-0.04,0-0.04,0-0.04,0.04l0,0.04l0.04,0z M17.48,14.04l0.08-0.04l-0.04-0.04l-0.12,0l0,0.04z M10,15.2l0.04-0.04c0-0.04,0-0.08-0.04-0.12c-0.04,0-0.04,0.04-0.04,0.08z M10.12,15.36l0.08-0.04c0.12-0.04,0.36-0.12,0.56-0.12c0.24-0.04,0.4-0.12,0.4-0.16s-0.08-0.04-0.16-0.04c-0.2,0-0.68,0.16-0.84,0.28z M17.24,14.28c0.08,0,0.16-0.04,0.16-0.08l-0.04-0.08l-0.2,0l-0.08,0.08c0,0.04,0.04,0.04,0.08,0.08l0.08,0z M12.64,15c0.04,0,0.08-0.04,0.12-0.12c0-0.04-0.04-0.08-0.12-0.08c-0.08,0.04-0.12,0.08-0.12,0.12s0.08,0.08,0.12,0.08z M17.6,14.2l0.08-0.04l-0.08-0.04l-0.08,0.04l0,0.04l0.08,0z M6.72,34.52c0.08,0,0.12-0.04,0.12-0.04l0-0.04c0-0.08,0.08-0.08,0.24-0.08c0.2,0,0.72-0.32,0.72-0.44l-0.04-0.08c0-0.04,0.16-0.08,0.32-0.08l0.04,0c0.24,0,1.08-0.52,1.2-0.76c0.08-0.12,0.2-0.24,0.32-0.28c0.12,0,0.24-0.12,0.28-0.2c0.04-0.16,0.12-0.24,0.2-0.24s0.12,0.04,0.12,0.16l-0.04,0.12l0.04,0l0.08-0.12c0.04-0.12,0.12-0.2,0.2-0.2c0.04,0,0.12-0.08,0.16-0.16c0.04-0.12,0.16-0.16,0.2-0.16l0.04,0c0.16,0,0.36-0.24,0.4-0.48c0.04-0.08,0.08-0.16,0.16-0.16l0.08,0l-0.16,0.16l0.04,0c0.16-0.04,0.32-0.2,0.32-0.36l-0.04-0.08c-0.04-0.08-0.12-0.12-0.16-0.12s-0.12-0.08-0.2-0.24c-0.16-0.24-0.24-0.32-0.72-0.84c-0.16-0.16-0.24-0.36-0.24-0.44c0.04-0.2,0.88-0.8,1.36-0.96l0.28-0.04c0.44,0,1.08,0.2,1.36,0.44c0.12,0.08,0.16,0.12,0.2,0.12l0-0.04l-0.08-0.08l0.04-0.04c0.12,0,0.36,0.36,0.4,0.56c0,0.08,0.04,0.08,0.08,0.08c0.12,0,0.28-0.12,0.48-0.4c0.16-0.2,0.36-0.36,0.44-0.36c0.2-0.04,1.4-1.12,1.92-1.72l0.36-0.28c0.12-0.08,0.16-0.12,0.16-0.16l-0.16-0.08c0-0.04,0.04-0.04,0.12-0.04c0.2,0,0.76-0.44,0.76-0.6c0-0.04,0.08-0.12,0.2-0.16c0.28-0.12,0.84-0.84,0.84-0.96l-0.04-0.08l0.04-0.04c0.12,0,0.4-0.16,0.56-0.36l0.08-0.12l-0.08-0.08c-0.08-0.04-0.08-0.04-0.08-0.08s0.08-0.08,0.24-0.16c0.36-0.12,0.48-0.2,0.48-0.36l0-0.04c0-0.12,0.04-0.2,0.16-0.2c0.08,0,0.16-0.08,0.16-0.12l0-0.2c0-0.08,0.12-0.2,0.28-0.32c0.12-0.08,0.2-0.16,0.2-0.2l-0.04-0.04l0.04-0.16c0.04-0.08,0.08-0.12,0.12-0.12l0.08,0c0.08,0,0.28-0.24,0.28-0.36l0-0.08c0-0.04,0-0.04,0.04-0.04c0.04-0.04,0.12-0.12,0.12-0.2c0.04-0.2,0.4-0.68,0.48-0.68c0.04,0,0.04-0.04,0.04-0.12l0-0.08c0-0.04,0.04-0.08,0.08-0.08l0.04,0l0-0.08c0-0.08,0.08-0.32,0.2-0.6c0.32-0.72,0.44-1.28,0.44-2.04s-0.08-1-0.56-1.44c-1.04-1.04-3.24-1.64-5.52-1.64c-0.64,0-1.28,0.04-1.88,0.12c-0.36,0.08-0.56,0.08-0.72,0.08c-0.08,0-0.16,0-0.16-0.04s0-0.08-0.04-0.08l-0.04,0.08c-0.04,0.08-0.48,0.24-1.6,0.48l-1.24,0.32c-1.44,0.4-1.88,0.56-1.88,0.72l0,0.04c0,0.04-0.04,0.08-0.12,0.08s-0.16,0.12-0.16,0.28c0,0.12,0,0.32-0.04,0.44l-0.12,0.72l0.04,0.52c0,0.24-0.04,0.52-0.12,0.52l-0.04,0c-0.04,0-0.08,0-0.08,0.08l0.04,0.12l-0.04,0.24c0.04,0,0.04-0.04,0.08-0.08s0.04-0.08,0.08-0.08l0,0.04c0,0.04-0.04,0.16-0.08,0.2c-0.12,0.08-0.28,0.84-0.32,1.4c0,0.12,0,0.2,0.04,0.2l0.08-0.04c0.04,0,0.04,0.04,0.04,0.08s-0.04,0.12-0.12,0.12c-0.12,0-0.24,0.6-0.24,1l0.04,0.24l-0.04,0.08l0.04,0.52c0,0.48-0.08,1-0.2,1.04c-0.08,0.04-0.16,0.16-0.16,0.28c0,0.08,0,0.12,0.08,0.12c0.04,0.04,0.04,0.08,0.04,0.2l0,0.12l-0.08,0.2l-0.08-0.08c-0.04,0-0.08,0.16-0.12,0.4l-0.04,0.32l0.04,0.2c0.04,0.04,0.04,0.12,0.04,0.2c0,0.32-0.16,0.88-0.36,1.12c-0.12,0.12-0.16,0.2-0.16,0.24l0.4-0.08l-0.16,0.2c-0.16,0.12-0.2,0.24-0.2,0.28l0,0.04l0.4-0.16c0,0.04-0.08,0.12-0.2,0.2c-0.12,0.04-0.2,0.12-0.2,0.16l0.04,0.16l-0.04,0.08c-0.04,0-0.08,0.2-0.08,0.4l0,0.24c0,0.08,0,0.12,0.04,0.12l0.08-0.08c0.04,0,0.04,0.04,0.04,0.16c0.04,0.12,0.08,0.16,0.12,0.16l0.2-0.04l0.04,0.08l-0.08,0.28c-0.04,0.08-0.04,0.12-0.08,0.12l0-0.12l-0.04-0.04l-0.12,0.04c-0.04,0.04-0.08,0.08-0.08,0.12c0.08,0,0.16,0.04,0.16,0.08c0,0.12-0.28,0.52-0.36,0.52c-0.04,0-0.12,0.16-0.16,0.32l-0.04,0.16c0,0.08,0.04,0.12,0.12,0.16c0.04,0.04,0.08,0.12,0.08,0.2c0,0.16-0.04,0.28-0.12,0.28s-0.12,0.16-0.16,0.36l-0.12,0.84c-0.04,0.28-0.12,0.72-0.12,1.04l-0.12,0.88c0,0.08,0,0.08,0.04,0.08l0.04,0z M9.64,15.52l0.24-0.12l0.12-0.08l-0.16,0c-0.12,0-0.2,0.08-0.24,0.12l0,0.04c0,0.04,0,0.04,0.04,0.04z M5.8,16.28l0.08-0.04l-0.08-0.04l-0.08,0.04z M5.2,16.56l0.08-0.04l-0.08-0.08l-0.08,0.04c0,0.04,0.04,0.08,0.08,0.08z M4.4,17.04c0.04,0,0.08-0.08,0.08-0.12l0-0.04c0-0.04,0-0.04-0.04-0.04s-0.08,0.04-0.08,0.12z M5.56,17.24c0.08,0,0.16-0.04,0.24-0.12l0.04-0.08l-0.16,0c-0.08,0-0.16,0.04-0.16,0.08l0,0.04z M5.36,17.28l0.04-0.08l-0.08-0.04l-0.04,0.08z M4.72,17.72l0.04-0.04c0-0.04,0-0.08-0.04-0.12l-0.04,0l0,0.08z M3.48,18.32l0.2-0.04c0.16-0.04,0.36-0.16,0.48-0.24l0.16-0.16l-0.12,0l-0.16,0.04c-0.4,0.08-0.56,0.16-0.6,0.32c0,0.08,0,0.08,0.04,0.08z M1.6,18.72c0.08-0.04,0.2-0.12,0.24-0.2l0.08-0.08l-0.04,0c-0.08,0-0.16,0.04-0.28,0.16l-0.16,0.12l0.16,0z M2.12,19.2c0.08,0,0.24-0.08,0.4-0.2c0.12-0.12,0.2-0.16,0.2-0.2l-0.08-0.08l-0.16-0.12l-0.04,0.04l0.08,0.16c0,0.04-0.08,0.12-0.2,0.2c-0.12,0.04-0.24,0.12-0.24,0.16z M1.36,19.12l0.16-0.04c-0.04-0.04-0.08-0.08-0.12-0.08l-0.08,0c-0.04,0-0.04,0.04-0.04,0.04l0,0.04c0,0.04,0,0.04,0.04,0.04l0.04,0z M1,19.28l0.04-0.04l0-0.04l-0.08,0s-0.04,0-0.04,0.04l0,0.04l0.08,0z M9.4,18.08c-0.08,0-0.08-0.04-0.08-0.08l0.08-0.04l0.08,0.08z M1.92,19.24l0.04-0.04l0-0.04l-0.08,0s-0.04,0-0.04,0.04l0,0.04l0.08,0z M0.52,19.64l0.12-0.16l-0.04-0.04c-0.04,0-0.04,0.04-0.08,0.08l0,0.12z M1.84,19.44c0.08,0,0.08-0.04,0.08-0.08l-0.08,0l-0.08,0.04z M1.44,19.68c0.04,0,0.08-0.04,0.12-0.12c0-0.04-0.04-0.08-0.12-0.08c-0.08,0.04-0.12,0.08-0.12,0.12s0.08,0.08,0.12,0.08z M0.08,19.96c0.04,0,0.12-0.04,0.12-0.12l0-0.04l-0.08,0.04c-0.08,0.04-0.12,0.08-0.12,0.12l0.08,0z M-0.8,20.56l0.12-0.04c0.08,0,0.12-0.04,0.12-0.08s-0.04-0.04-0.04-0.04l-0.12,0l-0.12,0.12z M0.4,20.36l0.28-0.04l-0.04-0.04l-0.12,0l-0.12,0.04l0,0.04z M-0.12,20.84l0.32-0.16c0.08-0.04,0.08-0.04,0.08-0.08l-0.16-0.04c-0.08,0.04-0.16,0.08-0.2,0.2z M-1.48,21.28c0.08,0,0.12-0.04,0.12-0.04l-0.08-0.04l-0.16,0.08l0.12,0z M-1.4,22.12l0.08-0.04l0-0.04l-0.08,0l-0.08,0.04l-0.04,0.04l0.12,0z M-1.72,22.48l0.16-0.08c0.08-0.04,0.12-0.08,0.12-0.12l0-0.04l-0.12,0.04l-0.08-0.04c-0.04-0.04-0.04-0.08-0.08-0.08l-0.08,0.08l-0.04,0.12c0,0.08,0.04,0.12,0.12,0.12z M9.04,20.76l-0.04-0.04l0-0.08l0.08,0.04z M-3.24,23.4l0.04-0.04l0-0.04l-0.08,0s-0.04,0-0.04,0.04l0,0.04l0.08,0z M6.52,22.56c0.04-0.04,0.08-0.04,0.08-0.08l0-0.04l-0.04-0.08c-0.04,0-0.08,0.04-0.08,0.12l0,0.04z M-2.96,24c0.04,0,0.08-0.08,0.08-0.16c0-0.04-0.04-0.08-0.08-0.08c0,0-0.04,0-0.04,0.04l-0.04,0.08l0,0.04c0,0.08,0.04,0.08,0.08,0.08z M5.2,23.56l0.04-0.12l-0.08-0.04c-0.04,0-0.04,0.04-0.04,0.08z M8.2,23.2l0.04-0.04c0.04-0.04,0.08-0.08,0.08-0.16c-0.04,0-0.04-0.04-0.04-0.04l-0.08,0.04l-0.04,0.12l0,0.04z M8.64,23.16l-0.04-0.08l0-0.08l0.04,0c0.04,0.04,0.04,0.08,0.04,0.12z M25.44,20.8c0-0.04,0-0.12-0.04-0.16c0-0.04-0.04-0.04-0.04-0.04l0,0.08c0,0.08,0.04,0.12,0.04,0.12l0.04,0z M8.16,23.52c0.04,0,0.04-0.04,0.08-0.12l0-0.04c0-0.04,0-0.04-0.04-0.04s-0.08,0.04-0.08,0.08l0,0.04c0,0.04,0,0.08,0.04,0.08z M25.76,21.04l-0.04,0l-0.04-0.08l0-0.04l0.04,0c0.04,0,0.04,0.04,0.04,0.08l0,0.04z M8.12,23.88l0.04-0.04c0-0.04,0-0.08-0.04-0.12c-0.04,0-0.04,0.04-0.04,0.08z M8.4,24.48l0-0.04c0-0.04,0-0.16,0.04-0.24l0.04-0.08c0.04,0,0.04,0,0.04,0.04s0,0.16-0.04,0.24z M22.84,22.24l0.08-0.04l0-0.04l-0.08-0.04l-0.08,0.04c0,0.04,0.04,0.08,0.08,0.08z M24,22.24l0.04-0.04c0-0.04,0-0.08-0.04-0.12l-0.04,0l0,0.08z M20.84,22.8c0.04,0,0.08-0.08,0.08-0.12l0.04-0.04l-0.04-0.04l-0.08,0.08l0,0.12z M8.08,26.12l-0.04-0.08c0-0.08,0-0.12,0.08-0.12c0.04,0,0.08-0.08,0.08-0.16l0-0.08l-0.12,0.04l-0.08-0.04l0-0.04c0-0.04,0.04-0.08,0.08-0.08c0.08,0,0.16-0.12,0.24-0.24l0.04-0.12c0.04,0,0.04,0,0.04,0.04l-0.04,0.28c-0.04,0.28-0.2,0.6-0.28,0.6z M7.08,26.16c0,0,0.04-0.08,0.04-0.2c0-0.08,0-0.16-0.08-0.16c-0.04,0-0.04,0.08-0.04,0.2z M22.8,23.72c0.08-0.04,0.12-0.08,0.12-0.12s-0.04-0.08-0.08-0.08c-0.08,0-0.12,0.04-0.12,0.12l0,0.04z M21.84,23.84l0.08-0.04l0-0.04l-0.08,0s-0.04,0-0.04,0.04l0,0.04l0.04,0z M23.16,23.84l0.08-0.04l-0.08-0.04l-0.08,0.04c0,0.04,0,0.04,0.08,0.04z M23.28,23.96l0.12-0.04c0.04-0.04,0.08-0.04,0.08-0.08l0-0.04l-0.04,0c-0.04,0-0.08,0.04-0.12,0.08z M22.44,24.72c0.08,0,0.2-0.04,0.2-0.12c0-0.04,0.08-0.04,0.16-0.04l0.08,0l-0.08-0.24l0.04-0.12l0.08-0.08l-0.08-0.04c-0.04,0-0.08,0.04-0.08,0.12c0,0.04-0.04,0.04-0.08,0.04l-0.04,0c-0.04,0-0.08,0.04-0.12,0.12s-0.16,0.16-0.28,0.16c-0.04,0-0.08,0.04-0.08,0.08l0,0.04c0.04,0.04,0.16,0.08,0.28,0.08z M20.96,24.72c0.04,0,0.16-0.08,0.28-0.24l0.12-0.16c0-0.04,0-0.04-0.04-0.04s-0.16,0.12-0.28,0.24l-0.12,0.16z M8.16,26.48l-0.04-0.04l0.04-0.08c0-0.04,0.04-0.08,0.08-0.08l0.04,0.04l-0.04,0.04c0,0.04-0.04,0.12-0.08,0.12z M20.2,24.84l0.04-0.08l-0.08-0.04l-0.04,0.08z M20.92,24.96l0.04-0.08l-0.08-0.04c-0.04,0-0.04,0.04-0.04,0.08z M20.68,25.36l0.08-0.04c0.08-0.04,0.12-0.08,0.12-0.12l-0.04,0c-0.04,0-0.08,0.04-0.12,0.08z M17.96,25.8l-0.08-0.04c0-0.04,0.04-0.04,0.04-0.04l0.08,0l0,0.04s0,0.04-0.04,0.04z M20.24,25.56c0.04,0,0.04-0.04,0.04-0.04l0-0.04l-0.08,0s-0.04,0-0.04,0.04l0,0.04l0.08,0z M22.04,25.76c0.04,0,0.08-0.04,0.12-0.12c0-0.04,0-0.08-0.04-0.08c-0.08,0-0.12,0.04-0.16,0.12c0,0.04,0,0.08,0.08,0.08z M21.52,25.84c0.08,0,0.16-0.08,0.2-0.12c0-0.08,0-0.08-0.04-0.08s-0.12,0.04-0.2,0.12l-0.08,0.08l0.12,0z M21.4,26.12l0.04-0.04c0-0.04,0-0.08-0.04-0.12l-0.04,0l0,0.08z M21.24,26.32l0.04-0.04s0-0.08-0.04-0.12c-0.04,0-0.04,0.04-0.04,0.08z M6.8,28.52l0.08-0.12l0-0.08c-0.04,0-0.08,0.04-0.12,0.12c0,0.04,0,0.08,0.04,0.08z M20.56,26.96l0.12-0.08l0.2-0.28c0.04-0.08,0.08-0.16,0.12-0.16c0.08,0,0.12-0.04,0.12-0.08s0-0.08-0.04-0.08l-0.08,0.04l-0.4,0.12l0.04,0.04l-0.04,0.28l-0.08,0.16z M8,28.32l-0.04,0l-0.04-0.04l0-0.08l0.04,0c0.04,0.04,0.04,0.08,0.04,0.12z M21.96,26.4l0.08-0.04l0-0.04l-0.04-0.08c-0.04,0-0.08,0.04-0.08,0.08l0,0.08l0.04,0z M21.32,26.72l0.08-0.16c0-0.08,0-0.12-0.04-0.12l-0.04,0.04c-0.04,0.04-0.04,0.08-0.04,0.12c0,0.08,0,0.12,0.04,0.12z M16,27.64l-0.04-0.08c0-0.04,0.04-0.08,0.08-0.12c0.04,0,0.04,0,0.04,0.04l0,0.08c0,0.04-0.04,0.08-0.08,0.08z M18.8,27.24l0.32-0.08l-0.12-0.04c-0.12-0.04-0.24-0.04-0.32-0.04l-0.08,0.04l0.04,0.04c0.04,0.04,0.08,0.08,0.16,0.08z M7.88,28.8l-0.08-0.04c0-0.08,0-0.08,0.04-0.08l0.08,0.04z M19.56,27.96c0.08,0,0.08-0.04,0.12-0.12l0.08-0.04l0.08,0c0.04,0,0.08,0,0.08-0.04s0.12-0.16,0.28-0.28s0.28-0.24,0.28-0.32l0-0.04c-0.04-0.04-0.08-0.04-0.12-0.04l-0.16,0.16c-0.12,0.12-0.32,0.24-0.4,0.28c-0.24,0.08-0.44,0.24-0.44,0.36l0.04,0.04z M21,27.2l0.04-0.12c0-0.04-0.08-0.04-0.16-0.04l-0.16,0.04z M7.32,29.36c0.04,0,0.08-0.04,0.08-0.08l0-0.08c0-0.04,0-0.04-0.04-0.04c-0.04,0.04-0.08,0.04-0.08,0.08l0,0.04z M5.8,29.68l0.04-0.12l-0.08-0.04l0,0.08z M16.52,28.4c0.04,0,0.12-0.08,0.32-0.24c0.12-0.08,0.2-0.16,0.2-0.2c-0.12,0-0.56,0.36-0.56,0.4z M17.76,28.12c0.04,0,0.08,0,0.12-0.08c0-0.08-0.08-0.08-0.24-0.08c-0.12,0.04-0.16,0.04-0.16,0.08l0.08,0.04z M18,28.28c0.04,0,0.04-0.04,0.08-0.08l0.04-0.08l-0.04-0.04c-0.04,0-0.08,0.08-0.08,0.12l-0.04,0.04z M18.52,29.28c0.04,0,0.04-0.04,0.08-0.12l0.04-0.08l0.12,0l-0.08-0.12l0.04-0.04c0.04,0,0.04-0.04,0.04-0.08l0-0.08c0-0.04,0.04-0.08,0.28-0.08c0.16,0,0.24-0.04,0.24-0.08l0-0.04c-0.04-0.04-0.08-0.04-0.16-0.04l-0.08,0c-0.04,0-0.08,0-0.08-0.04l0.08-0.08c0.2-0.08,0.32-0.16,0.32-0.24l-0.04-0.08c-0.04-0.04-0.08-0.04-0.12-0.04s-0.08,0.04-0.12,0.12c-0.08,0.08-0.2,0.2-0.32,0.24c-0.16,0.08-0.32,0.24-0.32,0.32l0.04,0.04l0.04,0c0.04,0,0.08,0,0.08,0.04l-0.04,0.08c-0.04,0.08-0.12,0.12-0.16,0.12l-0.08,0l-0.04,0.04l0.16,0.2z M17.12,28.48c0.08,0,0.12,0,0.12-0.04l-0.2,0l-0.04,0.04l0.12,0z M6.52,30.32c0.04,0,0.08-0.08,0.12-0.16c0-0.08,0-0.12-0.08-0.12c-0.04,0-0.08,0.08-0.08,0.16l0,0.04c0,0.04,0,0.08,0.04,0.08z M16.16,28.84l0.08-0.12l0-0.08c-0.04,0-0.08,0.04-0.12,0.08c0,0.08,0,0.12,0.04,0.12z M6.16,30.28l0.04-0.04l0-0.04l-0.08,0s-0.04,0-0.04,0.04l0,0.04l0.08,0z M7.56,30.72l-0.08,0l0.04-0.04l0.08-0.16c0-0.08-0.08-0.16-0.2-0.16c-0.04,0-0.08,0-0.08-0.04l0.32-0.24l0.04,0c0.08,0,0.12,0.04,0.12,0.08l-0.04,0.08c-0.08,0.08-0.08,0.2-0.08,0.28l0,0.08c0,0.08-0.04,0.12-0.12,0.12z M17.32,28.92c0-0.04,0-0.12-0.04-0.16l-0.04-0.04l0,0.08c0,0.08,0.04,0.12,0.04,0.12l0.04,0z M19.52,28.64l0.08-0.04l-0.04-0.04l-0.08-0.04l-0.04,0.08z M6.48,30.6l0.08-0.04l0-0.04l-0.08,0c-0.04,0-0.04,0-0.04,0.04l0,0.04l0.04,0z M15.52,29.36l0.04-0.08l-0.08-0.04c-0.04,0-0.04,0-0.04,0.08z M19.24,28.96c0.04-0.04,0.08-0.08,0.08-0.12l0-0.04c0-0.04,0-0.04-0.04-0.04l-0.08,0.04l0,0.04c0,0.08,0.04,0.12,0.04,0.12z M6.52,30.84c0-0.04,0-0.08-0.04-0.12c-0.04,0-0.04,0.04-0.04,0.08l0.04,0.04l0.04,0z M7.32,30.72l-0.08-0.04c0-0.04,0-0.08,0.04-0.08l0.08,0.04z M5.92,31.04l0.08-0.04l-0.08-0.04l-0.08,0.04c0,0.04,0.04,0.04,0.08,0.04z M6.48,31.12c0-0.04,0-0.08-0.04-0.12c-0.04,0-0.04,0.04-0.04,0.08l0.04,0.04l0.04,0z M17.88,29.48c0.12,0,0.2-0.04,0.2-0.08s-0.04-0.04-0.12-0.04l-0.08,0c-0.08,0-0.12,0.04-0.12,0.08z M15.28,30.36c0.12-0.04,0.16-0.12,0.16-0.24l0-0.08l0.08-0.16c0.08-0.04,0.12-0.12,0.12-0.16c0,0,0-0.04-0.04-0.04c0,0-0.08,0.04-0.12,0.12c-0.08,0.08-0.24,0.16-0.32,0.2c-0.08,0-0.12,0-0.12,0.04l0.12,0.04l0.08,0.08l-0.04,0c-0.08,0.04-0.12,0.08-0.12,0.12s0.12,0.08,0.2,0.08z M17.28,29.88c0.04,0,0.04-0.08,0.08-0.12l0-0.04c0-0.04,0-0.04-0.04-0.04s-0.08,0.04-0.08,0.08l0,0.04z M17.6,29.84c0.04-0.04,0.08-0.08,0.08-0.12s-0.08-0.08-0.12-0.08s-0.08,0.04-0.08,0.12z M16,30.12c0.04,0,0.12-0.08,0.12-0.16l-0.04-0.08l-0.04,0c-0.04,0-0.08,0.08-0.12,0.16l0.04,0.08l0.04,0z M15.72,30c0.08,0,0.12-0.04,0.12-0.04l0-0.04l-0.08,0c-0.04,0-0.08,0-0.12,0.04l-0.04,0.04l0.12,0z M18.84,29.84l0-0.12l0.08-0.08l0.04,0.04l-0.04,0.04c0,0.04-0.04,0.12-0.08,0.12z M18.28,29.8c0.08,0,0.12-0.04,0.12-0.04c0-0.04-0.04-0.04-0.08-0.04l-0.08,0.04l-0.04,0.04l0.08,0z M18.08,30c0-0.04,0-0.08-0.04-0.12c-0.04,0-0.04,0.04-0.04,0.08l0.04,0.04l0.04,0z M15.68,30.44c0.08,0,0.16-0.04,0.16-0.08c0-0.08-0.08-0.08-0.16-0.08c-0.04,0-0.12,0.04-0.16,0.12c0,0.04,0.08,0.04,0.16,0.04z M14.92,30.48l0.08-0.04l-0.08-0.04s-0.04,0-0.04,0.04l0,0.04l0.04,0z M6.36,31.92c0.08,0,0.08-0.08,0.08-0.12l-0.04-0.08c-0.04,0-0.08,0.04-0.08,0.12l0,0.04z M7.2,31.96l-0.04,0s-0.04-0.04-0.04-0.12l0-0.08l0.04,0.04c0.04,0.04,0.04,0.12,0.04,0.16z M15.16,30.92c0.08,0,0.12-0.04,0.12-0.08l-0.08,0c-0.04,0-0.08,0-0.12,0.04l-0.04,0.04l0.12,0z M16.36,31.04l0.04-0.08l-0.12,0l0,0.04z M7.08,32.44c-0.04,0-0.04-0.04-0.08-0.08c0-0.04,0-0.08,0.04-0.08l0.08,0.08z M15.6,31.76c0.04,0,0.2-0.16,0.32-0.36c0.12-0.16,0.16-0.24,0.16-0.28l-0.16,0.08c-0.12,0.08-0.2,0.12-0.2,0.2l0,0.12l-0.08,0.16l-0.08,0.08l0.04,0z M15.52,31.48c0.04,0,0.04,0,0.04-0.04c0-0.08,0-0.16-0.04-0.16l-0.08-0.04l-0.04,0.08l0.04,0.12z M6.2,33.12l0.08-0.04c0.04-0.04,0.12-0.08,0.12-0.12l-0.16,0c-0.08,0-0.12,0.04-0.12,0.08s0.04,0.08,0.08,0.08z M4.84,33.4l0.04-0.08l-0.08-0.04l0,0.08z M5.56,33.4l0.04-0.04l-0.04-0.12c-0.04,0-0.04,0.04-0.04,0.08z M6.12,33.84l0.04-0.08c0.04-0.12,0.04-0.28,0.04-0.4c-0.04-0.08-0.04-0.12-0.08-0.12c-0.04,0.04-0.04,0.2-0.04,0.4z M12.44,32.6l0.08-0.04l0-0.04l-0.08,0s-0.04,0-0.04,0.04l0,0.04l0.04,0z M6.92,33.68l-0.04-0.04l0.04-0.24c0.04-0.04,0.04-0.08,0.08-0.08l0,0.04l-0.04,0.24z M12.72,32.72l0.04-0.08l-0.08-0.04c-0.04,0-0.04,0-0.04,0.08z M12.92,32.8l0.04-0.08l-0.08-0.08c-0.04,0-0.04,0.04-0.04,0.08c0.04,0.08,0.08,0.08,0.08,0.08z M11.4,33.12c0.08,0,0.12-0.04,0.16-0.12l-0.04-0.04s-0.04,0.04-0.12,0.04c-0.08,0.04-0.16,0.08-0.16,0.12l0.16,0z M12.68,33.04l0.08-0.12l0-0.08c-0.04,0-0.08,0.04-0.08,0.12l-0.04,0.04z M3.76,34.48l0-0.04l-0.04-0.08c-0.04,0-0.04,0-0.04,0.08z M6.12,34.16c0.04,0,0.04,0,0.04-0.04c-0.04-0.04-0.08-0.08-0.16-0.08l0-0.04l-0.04,0.04z M13.04,33.44l0.08-0.08c0-0.04-0.04-0.08-0.08-0.08l-0.04,0l-0.08,0.04l0,0.04c0.04,0.04,0.08,0.08,0.12,0.08z M7.36,34.16l-0.04,0c-0.04,0-0.04,0-0.04-0.04l0.08-0.04l0.08,0.04z M6.04,34.52l0.04-0.12l0-0.04c0-0.04,0-0.04-0.04-0.04l-0.04,0l-0.08,0.16l0.08,0.04l0.04,0z M13.12,33.6l0.08-0.04l-0.04,0c0-0.04-0.04-0.04-0.04-0.04l-0.08,0.04l0,0.04l0.08,0z M12.52,34c0.16,0,0.44-0.08,0.44-0.2c0-0.04-0.08-0.04-0.12-0.04c-0.08,0-0.16-0.04-0.2-0.08l-0.04-0.04l0,0.32l-0.08-0.08l-0.12-0.04l-0.04,0l0,0.04c0,0.04,0.04,0.08,0.08,0.12l0.08,0z M4.84,35.16c0-0.04,0-0.08-0.04-0.12l-0.04,0l0,0.08l0.04,0.04l0.04,0z M11.76,34.72c0.12,0,0.16-0.04,0.16-0.12c0-0.04,0-0.04,0.04-0.04l0.04,0c0.12,0,0.24-0.24,0.24-0.36l0-0.08l-0.08-0.04c-0.16,0-0.32,0.12-0.32,0.2l0.04,0.04l0.2-0.08l0.04,0.08l0,0.04c0,0.04-0.04,0.04-0.08,0.08c-0.08,0-0.2,0.08-0.28,0.16l-0.08,0.12l0.08,0z M13.28,34.28l0.12-0.04c0.04,0,0.08-0.04,0.08-0.08s-0.04-0.04-0.12-0.04c-0.08,0.04-0.12,0.08-0.12,0.12z M16.8,34c0-0.04,0-0.12-0.04-0.12l-0.04-0.04l0,0.08c0,0.08,0.04,0.08,0.08,0.08z M11.04,35.12l0.04-0.08c-0.04-0.04-0.04-0.08-0.08-0.08l-0.04,0l-0.08,0.04l0.04,0.04c0.04,0.04,0.08,0.08,0.12,0.08z M5.88,35.92l0.04-0.08l-0.08-0.04l0,0.08z M10.12,35.72c0.16,0,0.32-0.08,0.32-0.12c0-0.08,0.12-0.12,0.24-0.16c0.2-0.04,0.28-0.12,0.28-0.16s-0.04-0.08-0.16-0.08l-0.24,0s0,0.04,0.08,0.08c0.04,0.04,0.08,0.04,0.08,0.08l-0.24,0c-0.08,0-0.12,0-0.16,0.04c0,0.08-0.12,0.12-0.24,0.12l-0.16,0.08l0,0.04c0.04,0.04,0.12,0.08,0.2,0.08z M12.04,35.24c0.04,0,0.08-0.04,0.08-0.08c-0.04-0.08-0.04-0.08-0.08-0.08l-0.08,0.08c0,0.04,0,0.08,0.04,0.08l0.04,0z M7.32,35.84l0.12-0.04l-0.04-0.04l-0.12,0l-0.08,0.04l-0.04,0.04l0.16,0z M4.24,36.44c0-0.04,0-0.08-0.04-0.12c-0.04,0-0.04,0.04-0.04,0.08l0.04,0.04l0.04,0z M5.84,36.24l0.04-0.12l-0.08-0.04l0,0.08z M17.36,34.56c-0.04,0-0.08,0-0.12-0.08l-0.04-0.04l0.08,0l0.12,0.08c0,0.04,0,0.04-0.04,0.04z M5.8,36.72c0.04-0.04,0.08-0.04,0.08-0.08l-0.16-0.08l-0.04,0.08c0.04,0.04,0.08,0.08,0.12,0.08z M9.32,36.4l0.08-0.12c0-0.04,0-0.08-0.08-0.08c-0.04,0-0.08,0.04-0.08,0.08z M5.64,37.08l0.04-0.04l0.08-0.16c-0.04,0-0.04-0.04-0.04-0.04l-0.08,0.04l-0.04,0.08l0,0.08z M8.32,36.8l0.08-0.04l-0.08-0.04l-0.08,0.04c0,0.04,0.04,0.04,0.08,0.04z M5.6,37.48c0.04,0,0.08-0.04,0.08-0.12l0-0.04c0-0.04,0-0.04-0.04-0.04s-0.08,0.04-0.08,0.12z M6.44,37.44l-0.04-0.08l0-0.08l0.04,0c0.04,0.04,0.04,0.08,0.04,0.12z M18.08,36.04l0.04-0.04c0-0.04-0.04-0.12-0.12-0.2l-0.08-0.08l-0.04,0l0.04,0.08c0,0.12,0.08,0.24,0.16,0.24z M3.08,38.24l0-0.12c0-0.12,0.04-0.2,0.08-0.2c0.08,0,0.08,0.04,0.08,0.08s0,0.12-0.08,0.2z M5.32,37.8l0.08-0.12c0-0.04-0.04-0.08-0.08-0.08s-0.08,0.08-0.08,0.12s0.04,0.08,0.08,0.08z M4.24,38.24l0.04-0.08l-0.12,0l0,0.04z M4.96,38.28c0-0.04,0-0.08-0.04-0.12c-0.04,0-0.04,0-0.04,0.08l0.04,0.04l0.04,0z M5.44,38.4l0.08-0.04c0.04-0.04,0.08-0.04,0.08-0.08l-0.12-0.08l-0.16,0c-0.04,0-0.08,0.04-0.08,0.08l-0.04,0.08l0.12-0.08l0.04,0.04c0,0.04,0.04,0.08,0.08,0.08z M5.76,38.36l0.04-0.04l-0.04-0.12c-0.04,0-0.04,0.04-0.04,0.08z M6.68,38.32l-0.04-0.08c0-0.04,0-0.08,0.04-0.08l0.08,0.08z M4.36,38.64l0.04-0.08l-0.08-0.04c-0.04,0-0.04,0-0.04,0.08z M18.44,36.84l0.04-0.04c0-0.04-0.08-0.08-0.16-0.16l-0.12-0.04l0.04,0.08c0.04,0.08,0.16,0.16,0.2,0.16z M5.48,38.68l0.08-0.08c0-0.04,0-0.08-0.04-0.08l-0.04,0c-0.04,0-0.08,0.04-0.08,0.08c0.04,0.04,0.04,0.08,0.08,0.08z M18.84,36.92l-0.04,0s-0.04-0.04-0.04-0.12l0-0.08s0.04,0,0.04,0.04c0.04,0.04,0.04,0.12,0.04,0.16z M5.32,39.88c0.04,0,0.04-0.12,0.12-0.32c0.04-0.24,0.04-0.48,0.04-0.52l-0.04-0.04c-0.04,0-0.04,0.04-0.08,0.16c0,0.12-0.04,0.2-0.12,0.2c-0.04,0-0.04,0.04-0.04,0.08l0.04,0.24c0.04,0.12,0.04,0.2,0.08,0.2z M4.8,39.24c0.04,0,0.08-0.04,0.12-0.08l0-0.08l-0.08,0.04c-0.08,0.04-0.12,0.08-0.12,0.12l0.08,0z M6.2,39.32c-0.04,0-0.04-0.04-0.04-0.08l0-0.08c0-0.12,0-0.2,0.04-0.2l0.08,0.16c0,0.12-0.04,0.2-0.08,0.2z M5.68,39.56c0-0.04,0-0.08-0.04-0.12l-0.04,0l0,0.08l0.04,0.04l0.04,0z M6.2,39.6l-0.04-0.08l0-0.08l0.04,0c0.04,0.04,0.04,0.08,0.04,0.12z M19.16,38.2l0.04-0.04l-0.04-0.16c0-0.08-0.08-0.16-0.12-0.16l-0.04,0.04l0.04,0.16z M4.8,41.08c0.04,0,0.16-0.08,0.2-0.2c0.08-0.12,0.12-0.16,0.16-0.16l0.04,0.08c0,0.08,0,0.12,0.04,0.12l0.16-0.16c0.12-0.08,0.2-0.28,0.2-0.36l-0.04-0.04l-0.12,0.04l-0.08-0.12c0-0.16-0.04-0.2-0.12-0.2l-0.04,0l-0.08-0.04l0-0.08l-0.04,0l0,0.04c0,0.08,0.04,0.16,0.08,0.2l0.08,0.16l-0.08,0.16l-0.08,0.08l-0.04,0l0.04-0.12l0-0.16c-0.04,0-0.08,0.04-0.16,0.16c-0.04,0.08-0.08,0.16-0.08,0.24l0.04,0.16l-0.04,0.12l-0.08,0.08l0.04,0z M6.16,40.04l-0.04,0l-0.08-0.04l0.08-0.16l0.08,0l0,0.08z M5.6,40.16c0.04,0,0.04-0.04,0.04-0.08l0-0.08l-0.04-0.08l-0.04,0c-0.04,0.04-0.04,0.12-0.04,0.16s0.04,0.08,0.08,0.08z M6.36,40.12l0.08-0.24l0.04,0l0.04,0.08l-0.08,0.08c-0.04,0.04-0.04,0.08-0.08,0.08z M19.4,38.44l0-0.08l-0.04-0.08l-0.04,0l-0.08,0.04l0.04,0.04c0.04,0.04,0.08,0.08,0.12,0.08z M6.08,40.44l-0.04-0.08l0-0.08l0.04,0c0.04,0.04,0.04,0.12,0.04,0.12z M4.64,40.84c0.04,0,0.08-0.08,0.08-0.12l-0.08-0.16l-0.08,0.16c0,0.08,0.04,0.12,0.08,0.12z M4.08,41c0.04,0,0.04,0,0.04-0.04l-0.2-0.08s0,0.04,0.04,0.04c0.04,0.08,0.08,0.08,0.12,0.08z M19.4,38.88l0-0.04c0-0.04-0.04-0.08-0.08-0.12l-0.08-0.04c-0.04,0-0.04,0.04-0.08,0.08l0,0.08l0.12-0.08l0.04,0.08l0.04,0.04l0.04,0z M19.64,38.88c0.04,0,0.04-0.04,0.04-0.08l0-0.08c0-0.04-0.04-0.08-0.08-0.08l-0.04,0l-0.04,0.08z M3.68,41.16c0.04,0,0.08-0.04,0.12-0.08c0-0.04-0.04-0.08-0.08-0.08l-0.04,0c-0.08,0-0.12,0.04-0.12,0.08s0.04,0.08,0.08,0.08l0.04,0z M4.6,41.12c0.04,0,0.08-0.04,0.08-0.08s-0.04-0.08-0.08-0.08l-0.08,0.08c0,0.04,0,0.08,0.04,0.08l0.04,0z M6.28,40.96l0-0.08l0.04-0.16l0.04,0l0.04,0.08z M19.92,39.28l0.04-0.08l-0.04-0.08l-0.04,0c-0.04,0-0.04,0.04-0.04,0.08z M4.92,41.56l0.08-0.12c0-0.04-0.04-0.08-0.08-0.08s-0.08,0.04-0.08,0.12c0,0.04,0.04,0.08,0.08,0.08z M6.24,41.36l0-0.08l0.08-0.12c0.04,0,0.04,0.04,0.04,0.08c-0.04,0.08-0.08,0.12-0.12,0.12z M5.2,41.48c0-0.04,0-0.08-0.04-0.12c-0.04,0-0.04,0-0.04,0.08l0.04,0.04l0.04,0z M4.2,41.76l0.08-0.12l0-0.08c-0.04,0-0.08,0.04-0.08,0.08l-0.04,0.08z M5.96,41.64l-0.08-0.04c0-0.04,0-0.08,0.04-0.08l0.08,0.04z M5.12,41.88c0.04,0,0.08-0.08,0.08-0.12l0-0.04c0-0.04-0.04-0.08-0.08-0.08l-0.08,0.04c-0.12,0.04-0.2,0.04-0.24,0.08c0,0,0.2,0.12,0.28,0.12l0.04,0z M20.4,39.88l-0.04-0.16l-0.08-0.08l-0.04,0l0.04,0.16z M4.52,42.16l0.08-0.04l-0.04-0.04l-0.08,0s-0.04,0-0.04,0.04l0,0.04l0.08,0z M20.64,40.28l0.04-0.08l-0.08-0.16c-0.08-0.04-0.08-0.08-0.12-0.08l0,0.08c0.04,0.12,0.12,0.24,0.16,0.24z M5.04,42.36l0.04-0.08l-0.04-0.08c-0.04,0-0.04,0.04-0.04,0.08z M4.48,42.6l0-0.04l-0.04-0.08c-0.04,0-0.04,0.04-0.04,0.08s0.04,0.04,0.04,0.04l0.04,0z M20.12,40.48l0.04-0.08l-0.12,0l0,0.04z M4.8,43.32c0.08,0,0.2-0.12,0.24-0.32l0.04-0.28c0-0.08-0.04-0.08-0.08-0.08c-0.08,0.04-0.08,0.08-0.08,0.16s-0.04,0.16-0.12,0.16l-0.08,0.04l0.04,0.04c0.04,0,0.12,0.04,0.12,0.12c0,0.04-0.04,0.04-0.08,0.04l-0.04,0l-0.04,0.04c0,0.08,0.04,0.08,0.08,0.08z M21.24,40.48l-0.08,0l0.04-0.08l0.08,0.04z M4.36,43.56l0.12-0.32c0-0.04,0-0.04-0.08-0.04s-0.12,0.08-0.12,0.2c0.04,0.08,0.04,0.16,0.08,0.16z M20.76,40.92l0.04-0.04l-0.08-0.04l-0.04,0.08l0.08,0z M5.12,43.72l0.08-0.04l0.04-0.12l-0.04-0.08c-0.04,0.04-0.08,0.08-0.08,0.16l0,0.08z M4.32,43.84l0.04-0.08l-0.04-0.04c0-0.04-0.04-0.04-0.04-0.04l0,0.08z M4.96,43.76l0.04-0.12l-0.08-0.04c-0.04,0-0.04,0.04-0.04,0.08z M21.76,41.8c0.04,0,0.08-0.04,0.08-0.12l-0.08-0.04l-0.04,0c-0.04,0-0.08,0.04-0.08,0.08s0.08,0.08,0.12,0.08z M5.68,44.36l-0.04,0c-0.04,0-0.04-0.04-0.08-0.08c0-0.08,0.04-0.16,0.08-0.2c0.04,0,0.08,0,0.08,0.08l0,0.08z M3.8,44.84c0-0.04,0-0.12-0.04-0.12c0,0,0-0.04-0.04-0.04l0,0.08l0.04,0.08l0.04,0z M5.16,44.64c0-0.04,0-0.08-0.04-0.12l-0.04,0l0,0.08l0.04,0.04l0.04,0z M5.6,44.84l-0.04-0.08c0-0.08,0-0.16,0.04-0.2l0.04,0c0.04,0,0.04,0.04,0.04,0.12c-0.04,0.12-0.04,0.16-0.08,0.16z M3.92,45.2l0.08-0.08l0.08-0.16l0-0.04l-0.08,0c-0.08,0.04-0.12,0.08-0.12,0.16l0,0.08z M4.88,44.88c0.08,0,0.12-0.04,0.12-0.04l0-0.04l-0.08,0c-0.04,0-0.08,0-0.08,0.04l-0.04,0.04l0.08,0z M4.72,46l0.04-0.04c0.04-0.04,0.08-0.12,0.08-0.2l-0.04-0.12c-0.04,0-0.04,0.04-0.08,0.12l-0.04,0.16z M4.56,46.32l0.08-0.04l-0.08-0.04l-0.08,0.04c0,0.04,0,0.04,0.08,0.04z M5,46.32l0-0.04l-0.04-0.08c-0.04,0-0.04,0-0.04,0.08l0.04,0.04l0.04,0z M5.28,46.4c-0.04,0-0.04-0.04-0.04-0.08c0.04-0.08,0.08-0.12,0.12-0.12l0,0.08z M23.84,45.08c0-0.04,0-0.08-0.04-0.12c-0.04,0-0.04,0-0.04,0.08l0.04,0.04l0.04,0z M24.48,45.2l-0.04-0.2c-0.04-0.04-0.08-0.12-0.12-0.12l0,0.04c0,0.12,0.08,0.28,0.16,0.28z M24,45.52c0.04,0,0.04,0,0.04-0.04l-0.12-0.08l-0.08,0s0,0.04,0.04,0.04c0.04,0.08,0.08,0.08,0.12,0.08z M25.08,45.76c0-0.04-0.08-0.12-0.16-0.2l-0.24-0.2l0,0.16c0.04,0.12,0.12,0.2,0.2,0.2c0.12,0,0.2,0.04,0.2,0.04z M24.84,48.32l-0.24-0.04l-0.12-0.12l0.08,0c0.12,0,0.28,0.12,0.28,0.16z"/></g><g data-name="business_name" fill="#FFFFFF" data="id:350" transform="translate(103.10089708427704,170.10846089359012) scale(0.786862109125031)"><path d="M15.48828125,37.32421875l3.02734375,4.19921875q3.61328125,4.9609375,6.2890625,5.25390625l-0.95703125,1.50390625q-1.26953125,0-2.36328125-0.15625q-0.99609375-0.13671875-2.3828125-0.625q-2.7734375-0.99609375-5.09765625-4.296875l-3.3984375-4.8828125q-0.1171875,0.0390625-0.21484375,0.0390625l-0.87890625,0.13671875l0,6.11328125q0,1.03515625,0.60546875,1.46484375q0.625,0.41015625,2.28515625,0.52734375l0,1.3671875q-5.68359375-0.15625-11.40625,0l0-1.3671875q1.66015625-0.1171875,2.28515625-0.52734375q0.60546875-0.4296875,0.60546875-1.46484375l0-18.4375q0-0.87890625-0.556640625-1.220703125t-2.099609375-0.458984375l0-1.3671875q1.54296875,0.078125,3.61328125,0.078125q1.26953125,0,3.80859375-0.0390625q0.46875,0,1.083984375-0.009765625t0.947265625-0.01953125t0.5078125-0.009765625q11.40625,0,11.40625,6.796875q0,5.2734375-7.109375,7.40234375z M12.12890625,24.5703125l-2.6171875,0l0,12.32421875l0.80078125-0.078125q6.9140625-0.72265625,6.93359375-6.640625q0-2.63671875-1.2890625-4.12109375t-3.828125-1.484375z M43.7109375,33.53515625l0,9.9609375q0,2.48046875,2.51953125,2.67578125l0,1.40625q-3.2421875,0.09765625-6.7578125,0.91796875q-0.72265625-0.25390625-0.99609375-1.015625l0.1953125-2.63671875l-0.3125,0q-0.5859375,1.015625-1.89453125,2.1484375q-1.73828125,1.50390625-4.35546875,1.50390625q-2.3828125,0-4.04296875-1.2890625q-1.6796875-1.328125-1.6796875-3.92578125q0-2.7734375,2.59765625-4.4921875q2.6171875-1.73828125,9.3359375-3.22265625l0-2.109375q0-2.578125-0.546875-3.53515625q-0.546875-0.99609375-2.0703125-0.99609375q-1.25,0-1.97265625,0.60546875t-0.91796875,1.58203125q-0.0390625,0.15625-0.126953125,0.654296875t-0.126953125,0.703125t-0.15625,0.64453125t-0.234375,0.64453125t-0.33203125,0.517578125t-0.46875,0.44921875t-0.615234375,0.25390625t-0.810546875,0.1171875q-1.19140625,0-1.77734375-0.52734375t-0.56640625-1.6015625q0-2.265625,2.734375-3.828125t6.93359375-1.5625q3.1640625,0,4.8046875,1.2890625q1.640625,1.25,1.640625,4.66796875z M34.39453125,46.1328125q1.3671875,0,2.40234375-1.09375q1.015625-1.11328125,1.5234375-2.265625l0-5.99609375q-4.21875,1.07421875-5.48828125,3.046875q-0.99609375,1.5625-0.99609375,3.02734375q0,1.484375,0.703125,2.3828125t1.85546875,0.8984375z M68.1640625,34.53125l0,10.60546875q0,1.19140625,2.51953125,1.46484375l0,1.3671875q-5.1953125-0.15625-10.4296875,0l0-1.3671875q2.51953125-0.1953125,2.51953125-1.46484375l0-10.60546875q0-4.4921875-2.96875-4.53125q-1.6796875,0-2.83203125,1.26953125q-1.171875,1.2890625-1.484375,2.578125l0,11.2890625q0,1.2890625,2.51953125,1.46484375l0,1.3671875q-5.1953125-0.15625-10.390625,0l0-1.3671875q2.48046875-0.25390625,2.48046875-1.46484375l0-12.01171875q0-2.20703125-2.44140625-1.796875l0-1.3671875q3.92578125-0.78125,6.7578125-2.48046875q0.703125,0.3125,1.03515625,1.0546875l-0.60546875,3.59375l0.25390625,0q0.5078125-0.95703125,1.23046875-1.875q0.80078125-0.95703125,2.421875-1.8359375q1.66015625-0.9375,3.57421875-0.9375q2.5,0,4.16015625,1.6015625q1.6796875,1.62109375,1.6796875,5.44921875z M83.2421875,36.09375l5.76171875,7.55859375q2.44140625,3.203125,4.765625,3.4375l-1.3671875,1.5234375q-2.44140625,0-4.296875-0.64453125q-1.875-0.64453125-3.53515625-2.75390625l-4.6484375-5.83984375l0,5.76171875q0,1.19140625,2.51953125,1.46484375l0,1.3671875q-5.15625-0.21484375-10.3515625,0l0-1.3671875q2.44140625-0.2734375,2.44140625-1.46484375l0-19.7265625q0-1.1328125-0.595703125-1.54296875t-1.806640625-0.21484375l0-1.3671875q4.12109375-0.7421875,6.9921875-2.48046875q0.7421875,0.33203125,1.0546875,1.03515625q-0.21484375,1.5625-0.25390625,5.68359375l0,10.41015625q3.203125-2.44140625,5.33203125-5.56640625q0.46875-0.72265625,0.009765625-1.201171875t-1.689453125-0.595703125l0-1.640625q4.43359375,0.21484375,8.8671875,0l0,1.640625q-1.85546875,0.1953125-3.7109375,1.7578125z M101.97265625,24.12109375q-0.8203125,0.83984375-1.97265625,0.83984375t-1.9921875-0.83984375t-0.83984375-1.9921875t0.83984375-1.97265625t1.9921875-0.8203125t1.97265625,0.8203125t0.8203125,1.97265625t-0.8203125,1.9921875z M102.79296875,34.2578125l0,10.87890625q0,1.19140625,2.51953125,1.46484375l0,1.3671875q-5.15625-0.21484375-10.3515625,0l0-1.3671875q2.44140625-0.2734375,2.44140625-1.46484375l0-12.01171875q0-1.171875-0.576171875-1.58203125t-1.826171875-0.21484375l0-1.3671875q4.12109375-0.7421875,6.9921875-2.48046875q0.72265625,0.33203125,1.0546875,1.0546875q-0.21484375,1.5625-0.25390625,5.72265625z M127.265625,34.53125l0,10.60546875q0,1.19140625,2.51953125,1.46484375l0,1.3671875q-5.1953125-0.15625-10.4296875,0l0-1.3671875q2.51953125-0.1953125,2.51953125-1.46484375l0-10.60546875q0-4.4921875-2.96875-4.53125q-1.6796875,0-2.83203125,1.26953125q-1.171875,1.2890625-1.484375,2.578125l0,11.2890625q0,1.2890625,2.51953125,1.46484375l0,1.3671875q-5.1953125-0.15625-10.390625,0l0-1.3671875q2.48046875-0.25390625,2.48046875-1.46484375l0-12.01171875q0-2.20703125-2.44140625-1.796875l0-1.3671875q3.92578125-0.78125,6.7578125-2.48046875q0.703125,0.3125,1.03515625,1.0546875l-0.60546875,3.59375l0.25390625,0q0.5078125-0.95703125,1.23046875-1.875q0.80078125-0.95703125,2.421875-1.8359375q1.66015625-0.9375,3.57421875-0.9375q2.5,0,4.16015625,1.6015625q1.6796875,1.62109375,1.6796875,5.44921875z M149.90234375,27.65625q2.12890625,0,2.12890625,2.0703125q0,1.9140625-1.4453125,1.9140625q-0.21484375,0-0.810546875-0.15625t-0.751953125-0.15625q-0.80078125,0-0.546875,0.83984375q0.44921875,1.46484375,0.4296875,2.71484375q0,3.1640625-2.34375,5.078125q-2.3046875,1.89453125-5.9765625,1.89453125q-1.2890625,0-2.67578125-0.29296875q-1.328125-0.3125-1.6015625-0.3125q-1.19140625,0-1.19140625,0.95703125q0,0.64453125,0.6640625,1.005859375t2.36328125,0.634765625l4.6484375,0.72265625q4.16015625,0.64453125,6.09375,1.73828125q1.89453125,1.07421875,1.89453125,3.33984375q0,3.18359375-3.125,5.078125q-3.125,1.9140625-7.71484375,1.9140625q-3.88671875,0-6.328125-1.40625q-2.421875-1.3671875-2.421875-3.9453125q0-1.40625,0.791015625-2.28515625t2.080078125-0.87890625q1.03515625,0,1.66015625,0.537109375t0.625,1.513671875q0,0.41015625-0.17578125,1.07421875q-0.17578125,0.68359375-0.17578125,1.19140625q0,1.19140625,1.171875,2.01171875q1.19140625,0.83984375,3.30078125,0.83984375q2.5,0,4.16015625-1.11328125q1.6796875-1.09375,1.6796875-3.046875q0-1.11328125-0.68359375-1.73828125t-2.265625-0.8984375l-7.01171875-1.25q-4.8828125-0.83984375-4.8828125-3.75q0-1.38671875,1.07421875-2.255859375t2.9296875-0.908203125q-1.54296875-0.72265625-2.470703125-2.216796875t-0.927734375-3.388671875q0-3.046875,2.32421875-5.09765625t6.03515625-2.05078125q2.1875,0,3.61328125,0.68359375q1.40625,0.6640625,2.71484375,1.875q0.78125-2.48046875,3.14453125-2.48046875z M138.02734375,38.75q0.76171875,1.62109375,2.44140625,1.62109375t2.44140625-1.62109375q0.76171875-1.6015625,0.76171875-4.0234375q0-2.40234375-0.76171875-4.04296875t-2.44140625-1.640625t-2.44140625,1.640625t-0.76171875,4.04296875q0,2.421875,0.76171875,4.0234375z  M172.48046875,27.578125q3.69140625,0,6.71875,2.8125q3.0078125,2.8125,3.0078125,7.65625q0,2.4609375-0.859375,4.51171875t-2.32421875,3.33984375q-2.91015625,2.51953125-6.50390625,2.51953125q-3.69140625,0-6.71875-2.8125q-3.0078125-2.83203125-3.0078125-7.67578125q0-2.44140625,0.869140625-4.501953125t2.314453125-3.330078125q2.87109375-2.51953125,6.50390625-2.51953125z M173.125,46.89453125q1.640625,0,2.51953125-1.904296875t0.87890625-5.380859375q0-4.6484375-1.2890625-7.578125q-1.25-2.94921875-3.359375-2.94921875q-1.640625,0-2.51953125,1.89453125t-0.87890625,5.3515625q0,4.66796875,1.2890625,7.63671875q1.2890625,2.9296875,3.359375,2.9296875z M194.23828125,19.9609375q2.44140625,0,4.04296875,1.015625q1.6015625,0.99609375,1.6015625,2.51953125q0,1.6796875-1.97265625,1.6796875q-1.03515625,0-1.484375-0.5859375q-0.4296875-0.5859375-0.41015625-1.25q0.01953125-0.64453125-0.3125-1.26953125q-0.3125-0.5859375-1.15234375-0.5859375q-1.40625,0-1.962890625,1.533203125t-0.556640625,4.755859375l0,0.15625l4.23828125,0l0,1.6015625l-4.23828125,0l0,15.60546875q0,1.19140625,2.51953125,1.46484375l0,1.3671875q-5.15625-0.21484375-10.3515625,0l0-1.3671875q2.44140625-0.2734375,2.44140625-1.46484375l0-15.60546875l-2.24609375,0l0-1.6015625l2.24609375,0l0-0.3515625q0-2.0703125,0.673828125-3.6328125t1.826171875-2.40234375q2.16796875-1.58203125,5.09765625-1.58203125z  M226.5234375,43.69140625l1.5234375-2.67578125l1.3671875,0q-1.19140625,3.53515625-1.2890625,6.953125q-9.39453125-0.234375-18.3984375,0l0-1.3671875q1.66015625-0.1171875,2.28515625-0.52734375q0.60546875-0.4296875,0.60546875-1.46484375l0-18.125q0-1.03515625-0.634765625-1.455078125t-2.333984375-0.537109375l0-1.3671875q5.80078125,0.1953125,11.5625,0l0,1.3671875q-1.69921875,0.1171875-2.32421875,0.537109375t-0.625,1.455078125l0,18.125q0,1.03515625,0.3515625,1.416015625t1.26953125,0.380859375l1.328125,0q2.20703125,0,3.3203125-0.5859375q1.11328125-0.625,1.9921875-2.12890625z M247.265625,43.88671875l1.5234375,0q-2.01171875,4.4921875-7.36328125,4.53125q-4.23828125,0-7.1484375-2.79296875q-2.890625-2.8125-2.890625-7.65625q0-4.8828125,2.83203125-7.63671875q2.8515625-2.75390625,6.73828125-2.75390625q3.57421875,0,5.95703125,2.32421875q2.36328125,2.3046875,2.36328125,5.703125q0,1.50390625-0.52734375,2.158203125t-1.796875,0.654296875l-9.921875,0q0,3.6328125,1.34765625,6.03515625q1.38671875,2.40234375,4.21875,2.40234375q3.22265625,0,4.66796875-2.96875z M237.03125,36.97265625l7.24609375,0q0-3.96484375-0.80078125-5.927734375t-2.55859375-1.962890625q-1.8359375,0-2.861328125,2.080078125t-1.025390625,5.810546875z M269.98046875,27.65625q2.12890625,0,2.12890625,2.0703125q0,1.9140625-1.4453125,1.9140625q-0.21484375,0-0.810546875-0.15625t-0.751953125-0.15625q-0.80078125,0-0.546875,0.83984375q0.44921875,1.46484375,0.4296875,2.71484375q0,3.1640625-2.34375,5.078125q-2.3046875,1.89453125-5.9765625,1.89453125q-1.2890625,0-2.67578125-0.29296875q-1.328125-0.3125-1.6015625-0.3125q-1.19140625,0-1.19140625,0.95703125q0,0.64453125,0.6640625,1.005859375t2.36328125,0.634765625l4.6484375,0.72265625q4.16015625,0.64453125,6.09375,1.73828125q1.89453125,1.07421875,1.89453125,3.33984375q0,3.18359375-3.125,5.078125q-3.125,1.9140625-7.71484375,1.9140625q-3.88671875,0-6.328125-1.40625q-2.421875-1.3671875-2.421875-3.9453125q0-1.40625,0.791015625-2.28515625t2.080078125-0.87890625q1.03515625,0,1.66015625,0.537109375t0.625,1.513671875q0,0.41015625-0.17578125,1.07421875q-0.17578125,0.68359375-0.17578125,1.19140625q0,1.19140625,1.171875,2.01171875q1.19140625,0.83984375,3.30078125,0.83984375q2.5,0,4.16015625-1.11328125q1.6796875-1.09375,1.6796875-3.046875q0-1.11328125-0.68359375-1.73828125t-2.265625-0.8984375l-7.01171875-1.25q-4.8828125-0.83984375-4.8828125-3.75q0-1.38671875,1.07421875-2.255859375t2.9296875-0.908203125q-1.54296875-0.72265625-2.470703125-2.216796875t-0.927734375-3.388671875q0-3.046875,2.32421875-5.09765625t6.03515625-2.05078125q2.1875,0,3.61328125,0.68359375q1.40625,0.6640625,2.71484375,1.875q0.78125-2.48046875,3.14453125-2.48046875z M258.10546875,38.75q0.76171875,1.62109375,2.44140625,1.62109375t2.44140625-1.62109375q0.76171875-1.6015625,0.76171875-4.0234375q0-2.40234375-0.76171875-4.04296875t-2.44140625-1.640625t-2.44140625,1.640625t-0.76171875,4.04296875q0,2.421875,0.76171875,4.0234375z M289.9609375,43.88671875l1.5234375,0q-2.01171875,4.4921875-7.36328125,4.53125q-4.23828125,0-7.1484375-2.79296875q-2.890625-2.8125-2.890625-7.65625q0-4.8828125,2.83203125-7.63671875q2.8515625-2.75390625,6.73828125-2.75390625q3.57421875,0,5.95703125,2.32421875q2.36328125,2.3046875,2.36328125,5.703125q0,1.50390625-0.52734375,2.158203125t-1.796875,0.654296875l-9.921875,0q0,3.6328125,1.34765625,6.03515625q1.38671875,2.40234375,4.21875,2.40234375q3.22265625,0,4.66796875-2.96875z M279.7265625,36.97265625l7.24609375,0q0-3.96484375-0.80078125-5.927734375t-2.55859375-1.962890625q-1.8359375,0-2.861328125,2.080078125t-1.025390625,5.810546875z M314.31640625,34.53125l0,10.60546875q0,1.19140625,2.51953125,1.46484375l0,1.3671875q-5.1953125-0.15625-10.4296875,0l0-1.3671875q2.51953125-0.1953125,2.51953125-1.46484375l0-10.60546875q0-4.4921875-2.96875-4.53125q-1.6796875,0-2.83203125,1.26953125q-1.171875,1.2890625-1.484375,2.578125l0,11.2890625q0,1.2890625,2.51953125,1.46484375l0,1.3671875q-5.1953125-0.15625-10.390625,0l0-1.3671875q2.48046875-0.25390625,2.48046875-1.46484375l0-12.01171875q0-2.20703125-2.44140625-1.796875l0-1.3671875q3.92578125-0.78125,6.7578125-2.48046875q0.703125,0.3125,1.03515625,1.0546875l-0.60546875,3.59375l0.25390625,0q0.5078125-0.95703125,1.23046875-1.875q0.80078125-0.95703125,2.421875-1.8359375q1.66015625-0.9375,3.57421875-0.9375q2.5,0,4.16015625,1.6015625q1.6796875,1.62109375,1.6796875,5.44921875z M338.0078125,26.5234375l0,16.97265625q0,2.48046875,2.51953125,2.67578125l0,1.40625q-3.30078125,0.09765625-6.71875,0.91796875q-0.76171875-0.25390625-1.0546875-1.015625l0.37109375-2.1875l-0.29296875,0q-0.52734375,1.23046875-1.8359375,2.1875q-1.328125,0.9375-3.359375,0.9375q-3.515625,0-6.26953125-2.75390625q-2.734375-2.79296875-2.734375-7.734375q0-4.86328125,2.71484375-7.59765625q2.734375-2.75390625,6.25-2.75390625q3.0859375,0,5,2.34375l0-4.51171875q0-1.1328125-0.5859375-1.54296875t-1.81640625-0.21484375l0-1.3671875q4.1015625-0.7421875,7.01171875-2.48046875q0.72265625,0.3125,1.03515625,1.03515625q-0.234375,1.640625-0.234375,5.68359375z M332.59765625,42.96875l0-11.2890625q-0.6640625-1.015625-1.7578125-1.796875q-1.1328125-0.80078125-2.40234375-0.80078125q-1.97265625,0-3.046875,2.0703125q-1.07421875,2.03125-1.07421875,5.5859375q0,4.4140625,1.30859375,7.265625q1.328125,2.8515625,3.37890625,2.8515625q1.3671875,0,2.36328125-1.23046875q0.99609375-1.26953125,1.23046875-2.65625z M357.63671875,42.48046875q0,2.578125-2.08984375,4.31640625q-2.0703125,1.69921875-4.7265625,1.69921875q-1.484375,0-3.30078125-0.7421875t-2.08984375-0.7421875q-0.72265625,0-0.80078125,0.95703125l-1.5625,0l-0.46875-5.60546875l1.26953125,0q0.625,2.01171875,2.6171875,3.3203125q2.03125,1.328125,3.828125,1.328125q1.23046875,0,1.9921875-0.72265625t0.76171875-1.9140625q0-1.38671875-0.9765625-2.24609375q-0.9375-0.83984375-3.18359375-1.875q-1.484375-0.703125-2.20703125-1.11328125q-0.7421875-0.41015625-1.93359375-1.328125q-2.265625-1.7578125-2.265625-4.53125q0-2.5390625,1.81640625-4.08203125q1.8359375-1.58203125,4.62890625-1.58203125q1.40625,0,2.87109375,0.56640625q1.40625,0.546875,1.77734375,0.546875q0.8203125,0,1.03515625-0.80078125l1.40625,0l0.3515625,5.48828125l-1.19140625,0q-0.95703125-2.24609375-2.48046875-3.30078125q-1.50390625-1.07421875-3.046875-1.07421875q-1.26953125,0-2.03125,0.712890625t-0.76171875,1.884765625q0,1.19140625,0.83984375,2.021484375t2.71484375,1.708984375q0.09765625,0.078125,0.9765625,0.46875q1.0546875,0.46875,1.19140625,0.546875q0.3515625,0.17578125,1.171875,0.64453125q0.72265625,0.390625,1.19140625,0.78125l0.99609375,0.87890625q0.64453125,0.5859375,0.8984375,1.09375q0.78125,1.3671875,0.78125,2.6953125z"/></g></svg>